<svg width="100" height="85" viewBox="0 0 100 85" fill="none" xmlns="http://www.w3.org/2000/svg">
<path d="M44.8589 54.8682L43.5774 76.411C43.4085 79.2518 45.5771 81.6915 48.4213 81.8603L92.5834 84.4809C95.4275 84.6496 97.8702 82.4836 98.0391 79.6428L99.3205 58.0999C99.4895 55.2592 97.3209 52.8194 94.4767 52.6507L50.3146 50.0301C47.4705 49.8613 45.0278 52.0274 44.8589 54.8682Z" fill="black" stroke="black" stroke-linecap="round" stroke-linejoin="round"/>
<path d="M41.4753 50.751L40.1939 72.2939C40.0249 75.1346 42.1936 77.5743 45.0377 77.7431L89.1998 80.3637C92.044 80.5324 94.4866 78.3664 94.6556 75.5256L95.937 53.9827C96.106 51.142 93.9373 48.7022 91.0932 48.5335L46.9311 45.9129C44.0869 45.7441 41.6443 47.9102 41.4753 50.751Z" fill="white" stroke="black" stroke-linecap="round" stroke-linejoin="round"/>
<g style="mix-blend-mode:multiply">
<path d="M40.828 62.9412L40.3442 71.0742L94.7344 74.3017L95.2181 66.1687L40.828 62.9412Z" fill="#B1FF05"/>
</g>
<path d="M51.8902 60.4727L6.08593 64.535L0.672852 3.62028L35.7454 0.511719L47.4059 10.0164L51.8902 60.4727Z" fill="white" stroke="black" stroke-linecap="round" stroke-linejoin="round"/>
<path d="M42.1949 6.06634C42.1721 6.05332 42.146 6.0403 42.1232 6.02402C41.3867 5.60087 40.6502 5.18748 39.8843 4.81641L5.05615 7.9152L9.73597 60.3961L47.6829 57.0206L43.2573 7.38788C42.8532 7.00053 42.5306 6.49275 42.1949 6.06634Z" fill="#00ED64"/>
<path d="M40.5947 18.2773L10.7429 20.9237" stroke="black" stroke-linecap="round" stroke-linejoin="round"/>
<path d="M38.7307 25.9414L11.4045 28.3631" stroke="black" stroke-linecap="round" stroke-linejoin="round"/>
<path d="M41.9147 33.1523L12.0662 35.7987" stroke="black" stroke-linecap="round" stroke-linejoin="round"/>
<path d="M40.1156 40.8086L12.7275 43.2368" stroke="black" stroke-linecap="round" stroke-linejoin="round"/>
<path d="M37.1793 48.5664L13.3892 50.6757" stroke="black" stroke-linecap="round" stroke-linejoin="round"/>
<path d="M47.4058 10.0159L37.0164 3.10547L37.9256 13.3133L47.4645 10.6864L47.4058 10.0159Z" fill="black" stroke="black" stroke-linecap="round" stroke-linejoin="round"/>
<path d="M35.7454 0.511719L36.6448 11.0157L47.4058 10.0164L35.7454 0.511719Z" fill="white" stroke="black" stroke-linecap="round" stroke-linejoin="round"/>
<path d="M63.831 50.8357C64.2774 55.7476 68.6281 59.3672 73.5458 58.9212C78.4636 58.4753 82.0875 54.1298 81.641 49.218C81.6019 48.7883 81.5302 48.3717 81.4357 47.9648L64.3394 46.9492C63.8962 48.1536 63.7039 49.4719 63.831 50.8357Z" fill="black" stroke="black" stroke-linecap="round" stroke-linejoin="round"/>
<path d="M82.5859 50.4053C87.5427 50.4053 91.561 46.3918 91.561 41.4409C91.561 36.49 87.5427 32.4766 82.5859 32.4766C77.6291 32.4766 73.6108 36.49 73.6108 41.4409C73.6108 46.3918 77.6291 50.4053 82.5859 50.4053Z" fill="white" stroke="black" stroke-miterlimit="10"/>
<path d="M82.5861 48.6086C86.5494 48.6086 89.7622 45.3996 89.7622 41.441C89.7622 37.4825 86.5494 34.2734 82.5861 34.2734C78.6228 34.2734 75.4099 37.4825 75.4099 41.441C75.4099 45.3996 78.6228 48.6086 82.5861 48.6086Z" fill="#B1FF05"/>
<path d="M79.9072 41.6668C79.3043 42.5359 79.4509 43.6133 80.4775 44.4694C81.416 45.2506 82.4002 45.2767 83.0683 44.4727C83.8211 43.571 83.241 42.7345 82.6512 41.9468C81.8951 40.9345 81.1553 39.8831 82.1167 38.7275L82.1069 38.721C82.7294 37.9756 83.7299 37.9496 84.6163 38.555C84.9259 38.7666 85.0367 38.9001 85.0367 38.9001C85.7048 39.6097 85.8221 40.5308 85.2779 41.3381" stroke="black" stroke-linecap="round" stroke-linejoin="round"/>
<path d="M80.4775 44.4648L79.8225 45.2265" stroke="black" stroke-linecap="round" stroke-linejoin="round"/>
<path d="M85.2192 37.6523L84.6228 38.4596" stroke="black" stroke-linecap="round" stroke-linejoin="round"/>
<path d="M51.8901 60.4739L54.8264 46.3828H50.6387L51.8901 60.4739Z" fill="black" stroke="black" stroke-linecap="round" stroke-linejoin="round"/>
</svg>
