<svg
  width="1317"
  height="1317"
  viewBox="0 0 1317 1317"
  fill="none"
  xmlns="http://www.w3.org/2000/svg"
>
  <path
    d="M164.625 1317H493.875C584.748 1317 658.5 1243.25 658.5 1152.38V987.75C658.5 806.004 806.004 658.499 987.75 658.499H1152.38C1243.25 658.499 1317 584.747 1317 493.874V164.624C1317 73.7512 1243.25 -0.000854492 1152.38 -0.000854492H493.875C403.002 -0.000854492 329.25 73.7512 329.25 164.624V165.943C329.25 256.815 403.002 330.568 493.875 330.568C584.748 330.568 658.5 404.319 658.5 495.193C658.5 586.065 584.748 659.818 493.875 659.818H164.625C73.752 659.818 0 733.569 0 824.442V1153.69C0 1243.25 73.752 1317 164.625 1317Z"
    fill="#F9EBFF"
  />
</svg>