<svg width="104" height="85" viewBox="0 0 104 85" fill="none" xmlns="http://www.w3.org/2000/svg">
<g clip-path="url(#clip0_2164_16744)">
<path d="M87.0732 69.7439L86.7379 70.1034H87.7337L87.0766 69.7439H87.0732ZM3.9978 4.26562V70.1034H71.0692L73.1387 66.5178L73.535 65.8325V65.8258L73.6163 65.6867L73.5621 65.6765L72.1632 65.4831L72.6442 62.9898L72.7525 62.4233L71.4113 61.8025L69.9209 61.1105L70.2563 60.4965L71.4282 58.3661L71.4384 58.3457L70.4053 57.3721L69.1758 56.212L71.4146 54.0646L69.9446 51.3237L72.7525 50.0074L72.2072 46.9238L75.2861 46.4964L75.6722 43.4128L78.7511 44.0031L80.0619 41.1705L82.8258 42.6869L84.9461 40.4649L86.1214 41.6895L86.6295 42.2187L87.0563 42.6631L87.1105 42.636L89.8405 41.1908L90.5145 42.6563L91.1276 43.9997L91.7474 43.8877L93.0244 43.6537V4.26562H3.9978ZM78.6969 68.4073L76.6985 68.7669L76.8543 70.1068H77.0406L79.3167 69.6998L78.6969 68.4107V68.4073ZM82.7953 69.7473L82.1382 70.1068H83.134L82.7987 69.7473H82.7953Z" fill="black" stroke="black" stroke-linecap="round" stroke-linejoin="round"/>
<path d="M96.3403 66.9883V67.9687L95.8424 67.1002L95.8492 67.0527L96.3403 66.9883Z" fill="black" stroke="black" stroke-linecap="round" stroke-linejoin="round"/>
<path d="M93.021 0.679688V43.6466L91.744 43.8807L91.1242 43.9926L90.5078 42.6493L89.8371 41.1838L87.1037 42.6289L87.0495 42.656L86.6228 42.2117L86.1147 41.6825L84.9394 40.4544L82.819 42.6764L80.0552 41.1634L78.7444 43.9926L75.6655 43.4057L75.2794 46.4893L72.2039 46.9168L72.7458 50.0004L69.9413 51.3166L71.4113 54.0576L69.1724 56.2049L70.4019 57.3651L71.4316 58.3421L71.4215 58.3624L70.2495 60.4928L69.9142 61.1102L71.4045 61.7988L72.7458 62.4196L72.6408 62.9861L72.1598 65.4829L73.5587 65.6762L73.6129 65.6864L73.5316 65.8255V65.8289L73.1387 66.5141H0.678467V0.679688H93.021Z" fill="white" stroke="black" stroke-linecap="round" stroke-linejoin="round"/>
<path d="M46.848 26.5133C50.0655 26.5133 52.6738 23.901 52.6738 20.6785C52.6738 17.4561 50.0655 14.8438 46.848 14.8438C43.6305 14.8438 41.0222 17.4561 41.0222 20.6785C41.0222 23.901 43.6305 26.5133 46.848 26.5133Z" fill="#FB9D3C" stroke="black" stroke-linecap="round" stroke-linejoin="round"/>
<path d="M86.6227 6.69922V42.2132L86.1147 41.684L84.9393 40.456L82.819 42.678L80.0551 41.165L78.7443 43.9942L75.6655 43.4073L75.2793 46.4909L72.2038 46.9184L72.7458 50.002L69.9412 51.3182L71.4113 54.0592L69.1724 56.2065L70.4019 57.3667L71.4316 58.3436L71.4214 58.364L70.2495 60.4944H7.07666V6.69922H86.6227Z" fill="#00ED5C" stroke="black" stroke-linecap="round" stroke-linejoin="round"/>
<path d="M46.8479 25.0472C49.2573 25.0472 51.2105 23.091 51.2105 20.6779C51.2105 18.2648 49.2573 16.3086 46.8479 16.3086C44.4385 16.3086 42.4854 18.2648 42.4854 20.6779C42.4854 23.091 44.4385 25.0472 46.8479 25.0472Z" fill="white" stroke="black" stroke-linecap="round" stroke-linejoin="round"/>
<path d="M72.6307 31.7461H21.0654V34.7992H72.6307V31.7461Z" fill="white" stroke="black" stroke-linecap="round" stroke-linejoin="round"/>
<path d="M72.6307 38.6367H21.0654V41.6898H72.6307V38.6367Z" fill="white" stroke="black" stroke-linecap="round" stroke-linejoin="round"/>
<path d="M81.0544 71.9671L73.9381 84.3218L72.4681 77.2726L65.6431 79.5319L71.0692 70.1047L73.1387 66.5156H73.3995L73.3724 66.6683L75.4047 66.9464L75.6452 68.9513L76.6986 68.7647L76.851 70.1047L76.8578 70.1352L77.0407 70.1047L79.3168 69.6976L79.5099 70.1047L80.0552 71.2445L80.5734 70.9595L81.0544 71.9671Z" fill="#7C42F7" stroke="black" stroke-linecap="round" stroke-linejoin="round"/>
<path d="M79.3167 69.6992L77.0406 70.1063L76.8577 70.1368L76.8509 70.1063L76.6985 68.7663L78.6969 68.4102L79.3167 69.6992Z" fill="#7C42F7" stroke="black" stroke-linecap="round" stroke-linejoin="round"/>
<path d="M87.7304 70.1057H86.7346L87.0733 69.7461L87.7304 70.1057Z" fill="#7C42F7" stroke="black" stroke-linecap="round" stroke-linejoin="round"/>
<path d="M102.996 79.5305L96.1711 77.2712L94.7011 84.3204L87.4832 71.7824L88.2927 70.9276L91.0295 72.427L92.1235 70.1032L92.364 69.5876L95.1549 70.1032L95.4428 70.1575L95.4496 70.1032L95.8425 67.0977L96.3404 67.9661L102.996 79.5305Z" fill="#7C42F7" stroke="black" stroke-linecap="round" stroke-linejoin="round"/>
<path d="M95.4496 70.1055L95.4428 70.1597L95.1549 70.1055H95.4496Z" fill="#7C42F7" stroke="black" stroke-linecap="round" stroke-linejoin="round"/>
<path d="M96.3404 4.26562V46.7407L95.69 46.6558L94.6095 46.51L94.386 44.8037L94.2031 43.4264L93.021 43.6469V4.26562H96.3404Z" fill="black" stroke="black" stroke-linecap="round" stroke-linejoin="round"/>
<path d="M101.191 62.243L98.3388 63.6033L98.9078 66.6428L96.3404 66.9854L95.8492 67.0499L95.8425 67.0973L95.4496 70.1029H95.1549L92.3639 69.5873L92.1234 70.1029L91.0294 72.4267L88.2926 70.9273L87.4831 71.7821L86.152 73.1967L84.9868 71.9585L86.6025 70.2454L86.7346 70.1029H87.7304L89.81 71.2427L90.3452 70.1029L91.1446 68.4068L94.2234 68.9733L94.6299 65.8659L95.0939 65.8049L96.3404 65.6387L97.6884 65.4623L97.1228 62.4194L99.9747 61.0591L98.4573 58.369L100.683 56.2148L101.916 57.3818L99.6767 59.5461L101.191 62.243Z" fill="black" stroke="black" stroke-linecap="round" stroke-linejoin="round"/>
<path d="M95.4495 70.1055L95.4427 70.1597L95.1548 70.1055H95.4495Z" fill="black" stroke="black" stroke-linecap="round" stroke-linejoin="round"/>
<path d="M83.9468 70.9603L81.2744 72.4292L81.0542 71.9678L80.5732 70.9603L82.1178 70.1156H82.1211L82.1381 70.1055H83.1339L83.9468 70.9603Z" fill="black" stroke="black" stroke-linecap="round" stroke-linejoin="round"/>
<path d="M73.3724 66.6679L73.3995 66.5152H73.1387L73.5316 65.83V65.8266L73.6129 65.6875L75.2793 65.9182L75.3505 66.5152L75.4046 66.946L73.3724 66.6679Z" fill="black" stroke="black" stroke-linecap="round" stroke-linejoin="round"/>
<path d="M83.134 70.1057H82.1382L82.7953 69.7461L83.134 70.1057Z" fill="black" stroke="black" stroke-linecap="round" stroke-linejoin="round"/>
<path d="M87.7302 70.1057H86.7344L87.0731 69.7461L87.7302 70.1057Z" fill="black" stroke="black" stroke-linecap="round" stroke-linejoin="round"/>
<path d="M79.3167 69.6992L77.0406 70.1063L76.8577 70.1368L76.8509 70.1063L76.6985 68.7663L78.6969 68.4102L79.3167 69.6992Z" fill="black" stroke="black" stroke-linecap="round" stroke-linejoin="round"/>
<path d="M82.1376 70.1055L82.1213 70.1152L82.1279 70.1055H82.1376Z" fill="black" stroke="black" stroke-linecap="round" stroke-linejoin="round"/>
<path d="M72.7458 62.4216L72.6408 62.9881L71.1335 62.2927L71.4045 61.8008L72.7458 62.4216Z" fill="black" stroke="black" stroke-linecap="round" stroke-linejoin="round"/>
<path d="M73.6128 65.6899L73.5315 65.8289L73.5586 65.6797L73.6128 65.6899Z" fill="black" stroke="black" stroke-linecap="round" stroke-linejoin="round"/>
<path d="M71.4316 58.3442L71.4215 58.3645L70.385 57.3841L70.4019 57.3672L71.4316 58.3442Z" fill="black" stroke="black" stroke-linecap="round" stroke-linejoin="round"/>
<path d="M87.1035 42.6312L87.0493 42.6583L86.6226 42.2139L86.1145 41.6847L86.1518 41.6406L86.6226 42.1325L87.1035 42.6312Z" fill="black" stroke="black" stroke-linecap="round" stroke-linejoin="round"/>
<path d="M91.7439 43.8841L91.124 43.996L90.5076 42.6527L91.0495 42.3711L91.7439 43.8841Z" fill="black" stroke="black" stroke-linecap="round" stroke-linejoin="round"/>
<path d="M98.9077 48.1006L98.4403 50.6109L97.1227 49.98L97.502 47.9141L98.9077 48.1006Z" fill="black" stroke="black" stroke-linecap="round" stroke-linejoin="round"/>
<path d="M101.147 52.5025L99.6596 55.2231L98.4369 54.0595L99.6664 51.7969L101.147 52.5025Z" fill="black" stroke="black" stroke-linecap="round" stroke-linejoin="round"/>
<path d="M98.4572 58.3694L100.683 56.2187L99.6494 55.2451L99.6596 55.2248L98.4369 54.0646L99.6664 51.7985L99.9272 51.3236L98.4402 50.618L97.1193 49.987L97.4986 47.9211L97.6849 46.9238L96.3369 46.7474L95.6831 46.6626L94.6027 46.5167L94.3791 44.8104L94.1962 43.4331L93.0141 43.6536L91.7372 43.8877L91.1173 43.9996L90.5043 42.6563L89.8302 41.1908L87.1002 42.6359L87.046 42.6631L86.6193 42.2187L86.1112 41.6895L84.9359 40.4648L82.8155 42.6868L80.0517 41.1704L78.7409 44.003L75.662 43.4128L75.2759 46.4964L72.197 46.9238L72.7423 50.0074L69.9344 51.3236L71.4044 54.0646L69.1655 56.2119L70.395 57.3721L71.4281 58.3457L71.418 58.366L70.246 60.4964L69.9107 61.1104L71.401 61.8024L72.7423 62.4232L72.6339 62.9897L72.153 65.4831L73.5518 65.6764L73.606 65.6866L75.2725 65.9173L75.3402 66.5177L75.3944 66.9452L75.6349 68.9534L76.6883 68.7668L78.6867 68.4072L79.3065 69.6963L79.4996 70.1034L80.0449 71.2432L80.5631 70.9583L82.1076 70.1136H82.1144L82.1212 70.1034H82.1313L82.7884 69.7438L83.1238 70.1034L83.9367 70.9583L84.001 70.9277L84.9799 71.9624L86.5956 70.2493L86.7276 70.1034L87.063 69.7438L87.7201 70.1034L89.7997 71.2432L90.3349 70.1034L91.1377 68.4072L94.2165 68.9738L94.623 65.8698L95.087 65.8053L96.3335 65.6391L97.6815 65.4627L97.1159 62.4232L99.9712 61.0629L98.4538 58.3694H98.4572ZM93.7593 63.4748C93.5256 63.7598 93.2783 64.0312 93.0209 64.2924C92.1233 65.1913 91.0801 65.9478 89.9217 66.5143C88.4686 67.2199 86.8326 67.6338 85.112 67.6542C85.0544 67.6609 84.9934 67.6609 84.9359 67.6609C84.4752 67.6609 84.0281 67.6338 83.5844 67.5761C82.2973 67.4303 81.0678 67.0605 79.9501 66.5177C78.121 65.6222 76.5731 64.2585 75.4554 62.5827C75.0184 61.9279 74.6492 61.2325 74.3546 60.4964C73.8194 59.1802 73.5315 57.7385 73.5315 56.2357C73.5315 49.9294 78.6359 44.8104 84.9393 44.8104C85.5117 44.8104 86.0773 44.8545 86.6294 44.9393C89.1156 45.3023 91.3375 46.476 93.0277 48.1789C95.0802 50.2449 96.347 53.0944 96.347 56.2357C96.347 58.9834 95.3783 61.5039 93.766 63.4782L93.7593 63.4748Z" fill="#7C42F7" stroke="black" stroke-linecap="round" stroke-linejoin="round"/>
<path d="M84.9866 71.9609L84.9392 72.0152L83.9468 70.9602L84.0111 70.9297L84.9866 71.9609Z" fill="#B265EC" stroke="black" stroke-linecap="round" stroke-linejoin="round"/>
<path d="M82.1376 70.1055L82.1213 70.1152L82.1279 70.1055H82.1376Z" fill="#B265EC" stroke="black" stroke-linecap="round" stroke-linejoin="round"/>
<path d="M100.696 56.2064L100.683 56.2166L99.6495 55.243L99.6597 55.2227L100.696 56.2064Z" fill="#B265EC" stroke="black" stroke-linecap="round" stroke-linejoin="round"/>
<path d="M96.3402 56.2344C96.3402 58.9822 95.3715 61.5026 93.7593 63.477C93.5256 63.7619 93.2783 64.0333 93.0209 64.2945C92.1233 65.1935 91.0801 65.9499 89.9217 66.5165C88.4686 67.2221 86.8326 67.6359 85.112 67.6563C85.0544 67.6631 84.9934 67.6631 84.9359 67.6631C84.4752 67.6631 84.0281 67.6359 83.5844 67.5782C82.2973 67.4324 81.0678 67.0626 79.9501 66.5198C78.121 65.6243 76.5731 64.2606 75.4554 62.5848C75.0184 61.9301 74.6492 61.2346 74.3546 60.4985C73.8194 59.1823 73.5315 57.7406 73.5315 56.2378C73.5315 49.9315 78.6359 44.8125 84.9393 44.8125C85.5117 44.8125 86.0773 44.8566 86.6294 44.9414C89.1155 45.3044 91.3375 46.4781 93.0277 48.1811C95.0802 50.247 96.347 53.0965 96.347 56.2378L96.3402 56.2344Z" fill="white" stroke="black" stroke-linecap="round" stroke-linejoin="round"/>
</g>
<defs>
<clipPath id="clip0_2164_16744">
<rect width="102.656" height="83.9799" fill="white" transform="translate(0.509033 0.511719)"/>
</clipPath>
</defs>
</svg>
