<svg width="136" height="85" viewBox="0 0 136 85" fill="none" xmlns="http://www.w3.org/2000/svg">
<path d="M4.66602 81.3054L41.5115 80.866L70.9233 58.3086L34.0811 58.7513L4.66602 81.3054Z" fill="#006CFA"/>
<path d="M1.99697 72.2636L4.80943 80.7332L40.6935 80.4468C40.6935 80.4468 40.1134 74.2362 37.9527 71.5508C37.9527 71.6615 1.86987 71.886 1.86987 71.886L1.99371 72.2604L1.99697 72.2636Z" fill="white" stroke="black" stroke-linecap="round" stroke-linejoin="round"/>
<path d="M1.39404 71.4538L38.2395 71.0144L67.6513 48.457L30.8091 48.8965L1.39404 71.4538Z" fill="#00D2FF" stroke="black" stroke-linecap="round" stroke-linejoin="round"/>
<path d="M41.5115 80.8674C41.5115 80.8674 40.7065 74.2271 38.2395 71.0144L67.6513 48.457C70.1183 51.6697 70.9233 58.31 70.9233 58.31L41.5115 80.8674Z" fill="#006CFA" stroke="black" stroke-linecap="round" stroke-linejoin="round"/>
<path d="M41.5115 80.8686C41.5115 80.8686 40.8336 75.3058 38.8294 71.901L38.8228 71.8912C38.6403 71.5787 38.4448 71.2858 38.2395 71.0156L1.39404 71.4583L1.66453 72.2721L37.8191 71.9108C39.3573 74.518 40.1134 78.3915 40.3839 80.0646L4.39552 80.4975L4.66601 81.3113L40.5044 80.8816L41.4104 80.8719H41.5082L41.5115 80.8686Z" fill="#006CFA" stroke="black" stroke-linecap="round" stroke-linejoin="round"/>
<path d="M37.8191 71.9062L1.99695 72.2643" stroke="black" stroke-linecap="round" stroke-linejoin="round"/>
<path d="M38.2395 73.3086L2.45972 73.6666" stroke="black" stroke-linecap="round" stroke-linejoin="round"/>
<path d="M38.9629 75.0781L3.04626 75.4362" stroke="black" stroke-linecap="round" stroke-linejoin="round"/>
<path d="M39.6636 76.8438L3.77954 77.2018" stroke="black" stroke-linecap="round" stroke-linejoin="round"/>
<path d="M39.9733 78.6133L4.36621 78.9681" stroke="black" stroke-linecap="round" stroke-linejoin="round"/>
<path d="M27.3156 76.9844L26.5074 84.0576L24.3565 81.9581L22.4761 84.4905L23.3234 77.056L27.3156 76.9844Z" fill="#00D2FF" stroke="black" stroke-linecap="round" stroke-linejoin="round"/>
<path d="M38.1417 48.8086L52.5266 60.0547L54.3614 71.0112L70.9233 58.31L69.8544 53.2615L67.6513 48.457L38.1417 48.8086Z" fill="black" stroke="black" stroke-linecap="round" stroke-linejoin="round"/>
<path d="M128.421 57.2568L75.2772 51.1797L36.1375 14.2578L89.2808 20.3382L128.421 57.2568Z" fill="#006CFA"/>
<path d="M133.619 44.596L128.303 56.415L76.5221 50.7057C76.5221 50.7057 78.2787 41.8195 81.795 38.2617C81.782 38.4245 133.853 44.0752 133.853 44.0752L133.619 44.5993V44.596Z" fill="white" stroke="black" stroke-linecap="round" stroke-linejoin="round"/>
<path d="M134.606 43.5107L81.4594 37.4303L42.3197 0.511719L95.4663 6.58887L134.606 43.5107Z" fill="#00ED64" stroke="black" stroke-linecap="round" stroke-linejoin="round"/>
<path d="M75.274 51.1763C75.274 51.1763 77.4216 41.7042 81.4595 37.4303L42.3197 0.511719C38.2819 4.78558 36.1343 14.2577 36.1343 14.2577L75.274 51.1763Z" fill="#00ED64" stroke="black" stroke-linecap="round" stroke-linejoin="round"/>
<path d="M134.094 44.6461L134.606 43.5101L81.4594 37.4297C81.1204 37.7877 80.7978 38.1849 80.4882 38.6048L80.4752 38.6178C77.0729 43.2399 75.2739 51.1724 75.2739 51.1724L75.4141 51.1887L76.7274 51.345V51.3384L128.421 57.2528L128.932 56.1168L77.024 50.1797C77.6627 47.8035 79.328 42.3188 81.9352 38.7805L134.094 44.6428V44.6461Z" fill="#00ED64" stroke="black" stroke-linecap="round" stroke-linejoin="round"/>
<path d="M81.9319 38.7852L133.618 44.5954" stroke="black" stroke-linecap="round" stroke-linejoin="round"/>
<path d="M80.6088 40.7852L132.69 46.6377" stroke="black" stroke-linecap="round" stroke-linejoin="round"/>
<path d="M79.7517 42.7617L131.559 48.585" stroke="black" stroke-linecap="round" stroke-linejoin="round"/>
<path d="M78.9272 44.7461L130.699 50.5628" stroke="black" stroke-linecap="round" stroke-linejoin="round"/>
<path d="M78.2168 46.7305L129.871 52.5342" stroke="black" stroke-linecap="round" stroke-linejoin="round"/>
<path d="M77.6823 48.6992L129.167 54.4834" stroke="black" stroke-linecap="round" stroke-linejoin="round"/>
<path d="M91.738 46.2109L91.8554 56.5489L95.2707 53.8342L97.6139 57.7663L97.49 46.9043L91.738 46.2109Z" fill="#00ED64" stroke="black" stroke-linecap="round" stroke-linejoin="round"/>
</svg>
