
<svg width="181" height="198" viewBox="0 0 181 198" fill="none" xmlns="http://www.w3.org/2000/svg">
<path d="M127.263 20.7695H28.1532C16.6554 20.7695 7.33545 30.0895 7.33545 41.5872V106.933C7.33545 127.109 23.6912 143.461 43.8636 143.461L36.5162 121.573H127.263C138.761 121.573 148.08 112.253 148.08 100.755V41.5872C148.08 30.0895 138.761 20.7695 127.263 20.7695Z" fill="#001E2B" stroke="#001E2B" stroke-miterlimit="10"/>
<path d="M43.8635 133.961V143.464L32.9487 136.502L37.4364 127.526L43.8635 133.961Z" fill="#001E2B" stroke="#001E2B" stroke-miterlimit="10"/>
<path d="M127.263 11.2656H28.1532C16.6554 11.2656 7.33545 20.5856 7.33545 32.0833V97.4292C7.33545 117.605 23.6912 133.957 43.8636 133.957L36.5162 112.069H127.263C138.761 112.069 148.08 102.749 148.08 91.2514V32.0833C148.08 20.5856 138.761 11.2656 127.263 11.2656Z" fill="#B1FF05" stroke="#001E2B" stroke-miterlimit="10"/>
<path d="M68.828 36.1709H29.3228V41.4945C29.3228 44.4349 31.7059 46.8181 34.6463 46.8181H68.828C71.7684 46.8181 74.1516 44.4349 74.1516 41.4945V36.1709H68.828Z" fill="#00A564" stroke="#001E2B" stroke-miterlimit="10"/>
<path d="M123.941 36.1709H84.436V41.4945C84.436 44.4349 86.8192 46.8181 89.7596 46.8181H123.941C126.882 46.8181 129.265 44.4349 129.265 41.4945V36.1709H123.941Z" fill="#00A564" stroke="#001E2B" stroke-miterlimit="10"/>
<path d="M123.941 59.2109H29.3228V64.5345C29.3228 67.475 31.7059 69.8581 34.6463 69.8581H123.941C126.881 69.8581 129.265 67.475 129.265 64.5345V59.2109H123.941Z" fill="#00A564" stroke="#001E2B" stroke-miterlimit="10"/>
<path d="M58.5438 82.251H29.3228V87.5746C29.3228 90.515 31.7059 92.8981 34.6463 92.8981H58.5438C61.4842 92.8981 63.8674 90.515 63.8674 87.5746V82.251H58.5438Z" fill="#00A564" stroke="#001E2B" stroke-miterlimit="10"/>
<path d="M68.828 30.8477H34.6463C31.7062 30.8477 29.3228 33.2311 29.3228 36.1712C29.3228 39.1114 31.7062 41.4948 34.6463 41.4948H68.828C71.7681 41.4948 74.1516 39.1114 74.1516 36.1712C74.1516 33.2311 71.7681 30.8477 68.828 30.8477Z" fill="white" stroke="#001E2B" stroke-miterlimit="10"/>
<path d="M123.941 53.8877H34.6463C31.7062 53.8877 29.3228 56.2711 29.3228 59.2113C29.3228 62.1514 31.7062 64.5349 34.6463 64.5349H123.941C126.881 64.5349 129.265 62.1514 129.265 59.2113C129.265 56.2711 126.881 53.8877 123.941 53.8877Z" fill="white" stroke="#001E2B" stroke-miterlimit="10"/>
<path d="M123.941 30.8477H89.7596C86.8195 30.8477 84.436 33.2311 84.436 36.1712C84.436 39.1114 86.8195 41.4948 89.7596 41.4948H123.941C126.881 41.4948 129.265 39.1114 129.265 36.1712C129.265 33.2311 126.881 30.8477 123.941 30.8477Z" fill="white" stroke="#001E2B" stroke-miterlimit="10"/>
<path d="M58.5438 76.9268H34.6463C31.7062 76.9268 29.3228 79.3102 29.3228 82.2503C29.3228 85.1905 31.7062 87.5739 34.6463 87.5739H58.5438C61.4839 87.5739 63.8674 85.1905 63.8674 82.2503C63.8674 79.3102 61.4839 76.9268 58.5438 76.9268Z" fill="white" stroke="#001E2B" stroke-miterlimit="10"/>
<path d="M80.7144 138.46H159.721L175.483 85.2129H96.4761L80.7144 138.46Z" fill="#5400F8" stroke="#001F2C" stroke-linejoin="round"/>
<path d="M87.75 133.206L100.399 90.4668H168.447L155.798 133.206H87.75Z" fill="white" stroke="#001E2B" stroke-miterlimit="10"/>
<path d="M80.7144 138.46H159.721L175.483 191.703H96.4761L80.7144 138.46Z" fill="#B45AF2" stroke="#001F2C" stroke-linejoin="round"/>
<path d="M126.698 99.9736H112.403C111.174 99.9736 110.178 100.97 110.178 102.199C110.178 103.428 111.174 104.425 112.403 104.425H126.698C127.928 104.425 128.924 103.428 128.924 102.199C128.924 100.97 127.928 99.9736 126.698 99.9736Z" fill="white" stroke="#001E2B" stroke-miterlimit="10"/>
<path d="M146.596 109.609H109.254C108.025 109.609 107.028 110.606 107.028 111.835C107.028 113.064 108.025 114.06 109.254 114.06H146.596C147.825 114.06 148.821 113.064 148.821 111.835C148.821 110.606 147.825 109.609 146.596 109.609Z" fill="white" stroke="#001E2B" stroke-miterlimit="10"/>
<path d="M149.749 99.9736H135.454C134.224 99.9736 133.228 100.97 133.228 102.199C133.228 103.428 134.224 104.425 135.454 104.425H149.749C150.978 104.425 151.974 103.428 151.974 102.199C151.974 100.97 150.978 99.9736 149.749 99.9736Z" fill="white" stroke="#001E2B" stroke-miterlimit="10"/>
<path d="M116.095 119.245H106.1C104.871 119.245 103.875 120.242 103.875 121.471C103.875 122.7 104.871 123.696 106.1 123.696H116.095C117.324 123.696 118.321 122.7 118.321 121.471C118.321 120.242 117.324 119.245 116.095 119.245Z" fill="white" stroke="#001E2B" stroke-miterlimit="10"/>
<path d="M122.192 123.699H139.655" stroke="#001E2B" stroke-miterlimit="10"/>
<path d="M96.4764 191.703H175.483L173.019 195.809H93.8623L78.8008 144.927L80.7146 138.46L96.4764 191.703Z" fill="#5400F8" stroke="#001F2C" stroke-linejoin="round"/>
<path d="M78.8008 144.927L80.7146 138.46L96.4764 191.703L93.8623 195.809L78.8008 144.927Z" fill="#001E2B" stroke="#001E2B" stroke-miterlimit="10"/>
<path d="M161.367 162.533L155.798 143.714H87.75L93.3229 162.533H161.367Z" fill="white" stroke="#001E2B" stroke-miterlimit="10"/>
<path d="M146.464 180.495L143.637 170.951C142.826 168.209 140.308 166.328 137.448 166.328H121.833C119.409 166.328 117.668 168.66 118.357 170.984L121.184 180.528C121.994 183.27 124.513 185.151 127.373 185.151H142.988C145.411 185.151 147.153 182.82 146.464 180.495Z" fill="white" stroke="#001E2B" stroke-miterlimit="10"/>
<path d="M89.1436 148.418H157.192" stroke="#001E2B" stroke-miterlimit="10"/>
<path d="M90.5366 153.125H158.585" stroke="#001E2B" stroke-miterlimit="10"/>
<path d="M91.9297 157.829H159.978" stroke="#001E2B" stroke-miterlimit="10"/>
<path d="M87.75 143.714H155.798" stroke="#001E2B" stroke-miterlimit="10"/>
<path d="M93.3232 162.533H161.368" stroke="#001E2B" stroke-miterlimit="10"/>
<path d="M87.75 143.714L93.3229 162.533" stroke="#001E2B" stroke-miterlimit="10"/>
<path d="M92.9858 143.714L98.5551 162.533" stroke="#001E2B" stroke-miterlimit="10"/>
<path d="M98.2178 143.714L103.791 162.533" stroke="#001E2B" stroke-miterlimit="10"/>
<path d="M103.453 143.714L109.026 162.533" stroke="#001E2B" stroke-miterlimit="10"/>
<path d="M108.689 143.714L114.258 162.533" stroke="#001E2B" stroke-miterlimit="10"/>
<path d="M113.921 143.714L119.494 162.533" stroke="#001E2B" stroke-miterlimit="10"/>
<path d="M119.156 143.714L124.729 162.533" stroke="#001E2B" stroke-miterlimit="10"/>
<path d="M124.392 143.714L129.961 162.533" stroke="#001E2B" stroke-miterlimit="10"/>
<path d="M129.624 143.714L135.197 162.533" stroke="#001E2B" stroke-miterlimit="10"/>
<path d="M134.859 143.714L140.432 162.533" stroke="#001E2B" stroke-miterlimit="10"/>
<path d="M140.095 143.714L145.664 162.533" stroke="#001E2B" stroke-miterlimit="10"/>
<path d="M145.327 143.714L150.9 162.533" stroke="#001E2B" stroke-miterlimit="10"/>
<path d="M150.562 143.714L156.135 162.533" stroke="#001E2B" stroke-miterlimit="10"/>
<path d="M155.798 143.714L161.368 162.533" stroke="#001E2B" stroke-miterlimit="10"/>
<path d="M152.227 34.3115L173.664 81.2339" stroke="#001E2B" stroke-miterlimit="10"/>
<path d="M15.6362 21.5938L91.9299 81.6344" stroke="#001E2B" stroke-miterlimit="10"/>
<path d="M46.5952 134.295L74.995 137.76" stroke="#001E2B" stroke-miterlimit="10"/>
<path d="M151.003 10.3933L144.572 1L133.224 1.8726L128.308 12.1385L134.735 21.5281L146.082 20.6555L151.003 10.3933Z" fill="white" stroke="#001E2B" stroke-width="0.75" stroke-miterlimit="10"/>
<path d="M128.308 12.1389L134.735 21.5285L139.655 11.2663L133.224 1.87305L128.308 12.1389Z" fill="#001E2B" stroke="#001E2B" stroke-width="0.75" stroke-miterlimit="10"/>
<path d="M151.003 10.3926L139.655 11.2652" stroke="#001E2B" stroke-width="0.75" stroke-miterlimit="10"/>
<path d="M43.5189 174.505C48.2025 174.505 51.9993 170.708 51.9993 166.024C51.9993 161.341 48.2025 157.544 43.5189 157.544C38.8354 157.544 35.0386 161.341 35.0386 166.024C35.0386 170.708 38.8354 174.505 43.5189 174.505Z" fill="white" stroke="#001E2B" stroke-miterlimit="10"/>
<path d="M38.3716 172.762C38.3716 172.762 49.0554 169.202 50.588 161.338C52.4138 163.794 53.1104 169.415 49.1104 172.399C45.1104 175.384 41.2387 174.35 38.3752 172.762H38.3716Z" fill="#023430"/>
<path d="M173.969 164.989L180 185.151" stroke="#001E2B" stroke-miterlimit="10"/>
<path d="M168.421 146.438L173.008 161.782" stroke="#001E2B" stroke-miterlimit="10"/>
<path d="M1 59.2109V92.8976" stroke="#001E2B" stroke-miterlimit="10"/>
<path d="M1 36.1709V50.7998" stroke="#001E2B" stroke-miterlimit="10"/>
</svg>
