<svg width="431" height="431" viewBox="0 0 431 431" fill="none" xmlns="http://www.w3.org/2000/svg">
  <path d="M345.65 309.39V316.774C341.397 316.694 338.505 317.862 336.293 320.29C334.081 322.717 332.845 328.263 332.607 336.928C332.426 343.53 332.051 348.418 331.473 351.594C330.894 354.77 329.647 357.401 327.707 359.499C325.768 361.597 323.307 363.083 320.312 363.957C317.318 364.83 313.099 365.193 307.677 365.046L304.569 364.955L304.955 350.947C310.626 351.106 314.029 350.607 315.174 349.473C316.32 348.339 316.978 346.059 317.148 342.668C317.635 333.299 318.112 327.208 318.565 324.407C319.019 321.605 319.949 318.94 321.367 316.422C322.785 313.904 325.359 311.522 329.102 309.276L345.662 309.39H345.65Z" fill="#001E2B"/>
  <path d="M328.535 309.208C325.076 307.076 322.558 304.535 321.004 301.586C319.439 298.637 318.554 294.418 318.316 288.906L317.568 271.836C317.227 270.191 316.399 268.944 315.072 268.093C313.745 267.242 310.706 266.8 305.942 266.766L306.055 252.69L309.106 252.713C315.356 252.758 320.176 253.507 323.568 254.97C326.959 256.422 329.397 258.781 330.895 262.036C332.392 265.292 333.118 270.532 333.061 277.768C333.004 285.741 333.231 290.845 333.764 293.08C334.297 295.314 335.329 297.367 336.883 299.227C338.437 301.099 341.375 302.131 345.707 302.312L345.651 309.401L328.535 309.219V309.208Z" fill="#001E2B"/>
  <path d="M324.702 299.125V306.509C320.448 306.429 317.556 307.598 315.344 310.025C313.133 312.452 311.896 317.998 311.658 326.664C311.477 333.265 311.103 338.153 310.524 341.329C309.946 344.505 308.698 347.136 306.758 349.235C304.819 351.333 302.358 352.819 299.363 353.692C296.369 354.565 292.15 354.928 286.728 354.781L283.621 354.69L284.006 340.683C289.677 340.841 293.08 340.342 294.225 339.208C295.371 338.074 296.029 335.794 296.199 332.403C296.687 323.034 297.163 316.944 297.617 314.142C298.07 311.341 299 308.675 300.418 306.157C301.836 303.639 304.411 301.257 308.154 299.012L324.713 299.125H324.702Z" fill="#00D2FF" stroke="#001E2B" stroke-linecap="round" stroke-linejoin="round"/>
  <path d="M307.587 298.943C304.127 296.811 301.609 294.271 300.055 291.322C298.49 288.373 297.606 284.153 297.367 278.641L296.619 261.571C296.279 259.927 295.451 258.679 294.124 257.828C292.797 256.978 289.757 256.535 284.993 256.501L285.107 242.426L288.158 242.448C294.407 242.494 299.227 243.242 302.619 244.706C306.01 246.157 308.449 248.516 309.946 251.772C311.443 255.027 312.169 260.267 312.112 267.503C312.055 275.477 312.282 280.581 312.815 282.815C313.348 285.049 314.381 287.102 315.934 288.962C317.488 290.834 320.426 291.866 324.759 292.047L324.702 299.136L307.587 298.955V298.943Z" fill="white" stroke="#001E2B" stroke-linecap="round" stroke-linejoin="round"/>
  <path d="M296.131 166.195H218.472V182.936H296.131V166.195Z" fill="#00D2FF" stroke="#001E2B" stroke-linejoin="round"/>
  <path d="M218.483 182.937V184.57H181.462C181.179 184.059 180.906 183.515 180.668 182.937C179.738 180.702 179.194 177.98 179.194 175.02C179.194 172.059 179.738 169.337 180.668 167.103C180.906 166.525 181.179 165.98 181.462 165.47H218.869V167.103L216.453 175.36L218.483 182.937Z" fill="#001E2B" stroke="#001E2B" stroke-miterlimit="10"/>
  <path d="M219.3 167.103C218.256 169.269 217.621 172.037 217.621 175.02C217.621 178.003 218.256 180.77 219.3 182.937H295.95C296.403 182.937 296.766 183.3 296.766 183.753C296.766 184.207 296.403 184.57 295.95 184.57H218.267C217.984 184.059 217.712 183.515 217.474 182.937C216.543 180.702 215.999 177.98 215.999 175.02C215.999 172.059 216.543 169.337 217.474 167.103C217.712 166.525 217.984 165.98 218.267 165.47H295.95C296.403 165.47 296.766 165.833 296.766 166.286C296.766 166.74 296.403 167.103 295.95 167.103H219.3Z" fill="#006CFA" stroke="#001E2B" stroke-miterlimit="10"/>
  <path d="M296.131 167.103V182.936" stroke="#001E2B" stroke-miterlimit="10"/>
  <path d="M219.299 167.103C219.299 167.103 218.46 169.008 218.46 175.019C218.46 181.031 219.299 182.936 219.299 182.936C219.299 182.936 217.655 179.545 217.621 175.019C217.598 170.482 219.299 167.103 219.299 167.103Z" fill="#001E2B" stroke="#001E2B" stroke-linejoin="round"/>
  <path d="M218.902 169.894H296.131" stroke="#001E2B" stroke-linejoin="round"/>
  <path d="M218.665 173.262H296.131" stroke="#001E2B" stroke-linejoin="round"/>
  <path d="M218.665 176.63H296.131" stroke="#001E2B" stroke-linejoin="round"/>
  <path d="M218.891 179.999H296.131" stroke="#001E2B" stroke-linejoin="round"/>
  <path d="M237.946 182.052L234.101 179.671L230.267 182.052L231.696 170.483H237.946V182.052Z" fill="#001E2B" stroke="#001E2B" stroke-linejoin="round"/>
  <path d="M239.386 182.052L235.541 179.671L231.696 182.052V170.483H239.386V182.052Z" fill="white" stroke="#001E2B" stroke-linejoin="round"/>
  <path d="M286.638 147.096H208.979V163.837H286.638V147.096Z" fill="#00D2FF" stroke="#001E2B" stroke-linejoin="round"/>
  <path d="M208.99 163.837V165.47H171.969C171.686 164.96 171.413 164.415 171.175 163.837C170.245 161.603 169.701 158.88 169.701 155.92C169.701 152.96 170.245 150.238 171.175 148.003C171.413 147.425 171.686 146.881 171.969 146.37H209.375V148.003L206.96 156.26L208.99 163.837Z" fill="#001E2B" stroke="#001E2B" stroke-miterlimit="10"/>
  <path d="M209.818 148.003C208.774 150.17 208.139 152.937 208.139 155.92C208.139 158.903 208.774 161.671 209.818 163.837H286.468C286.921 163.837 287.284 164.2 287.284 164.654C287.284 165.107 286.921 165.47 286.468 165.47H208.786C208.502 164.96 208.23 164.415 207.992 163.837C207.062 161.603 206.517 158.88 206.517 155.92C206.517 152.96 207.062 150.238 207.992 148.003C208.23 147.425 208.502 146.881 208.786 146.37H286.468C286.921 146.37 287.284 146.733 287.284 147.187C287.284 147.64 286.921 148.003 286.468 148.003H209.818Z" fill="#006CFA" stroke="#001E2B" stroke-miterlimit="10"/>
  <path d="M286.638 148.003V163.836" stroke="#001E2B" stroke-miterlimit="10"/>
  <path d="M209.818 148.003C209.818 148.003 208.978 149.908 208.978 155.92C208.978 161.931 209.818 163.836 209.818 163.836C209.818 163.836 208.173 160.445 208.139 155.92C208.116 151.383 209.818 148.003 209.818 148.003Z" fill="#001E2B" stroke="#001E2B" stroke-linejoin="round"/>
  <path d="M209.409 150.805H286.638" stroke="#001E2B" stroke-linejoin="round"/>
  <path d="M209.183 154.174H286.638" stroke="#001E2B" stroke-linejoin="round"/>
  <path d="M209.183 157.542H286.638" stroke="#001E2B" stroke-linejoin="round"/>
  <path d="M209.398 160.911H286.638" stroke="#001E2B" stroke-linejoin="round"/>
  <path d="M228.464 162.952L224.619 160.57L220.774 162.952L222.204 151.395H228.464V162.952Z" fill="#001E2B" stroke="#001E2B" stroke-linejoin="round"/>
  <path d="M229.893 162.952L226.048 160.57L222.203 162.952V151.395H229.893V162.952Z" fill="white" stroke="#001E2B" stroke-linejoin="round"/>
  <path d="M173.432 107.387C173.432 128.869 158.381 146.835 138.249 151.304C135.096 152.007 131.806 152.382 128.438 152.382C103.587 152.382 83.4551 132.238 83.4551 107.399C83.4551 82.5596 103.599 62.416 128.438 62.416C131.806 62.416 135.084 62.7903 138.249 63.4935C158.37 67.9623 173.432 85.9169 173.432 107.399V107.387Z" fill="#001E2B" stroke="#001E2B" stroke-miterlimit="10"/>
  <path d="M173.432 107.387C173.432 128.869 158.381 146.835 138.249 151.303C118.128 146.835 103.077 128.869 103.077 107.387C103.077 85.9048 118.128 67.9502 138.249 63.4814C158.37 67.9502 173.432 85.9048 173.432 107.387Z" fill="#001E2B" stroke="#001E2B" stroke-miterlimit="10"/>
  <path fill-rule="evenodd" clip-rule="evenodd" d="M128.256 62.1321C103.451 62.1321 83.251 82.321 83.251 107.138C83.251 131.954 103.44 152.143 128.256 152.143C131.341 152.143 134.302 151.814 137.126 151.236C136.048 150.737 135.844 146.54 137.001 144.238C138.237 141.595 142.23 134.914 138.283 132.657C134.358 130.423 135.47 129.447 133.077 126.805C130.695 124.162 131.67 123.788 131.466 123.085C130.967 120.907 133.769 117.357 133.984 117.039C134.109 116.665 134.109 115.304 133.984 114.93C133.984 114.408 132.249 113.5 131.795 113.444C131.387 113.444 131.092 114.147 130.514 114.272C129.935 114.396 127.304 112.661 126.725 112.162C126.147 111.64 125.818 110.688 124.967 109.973C124.139 109.122 124.094 109.769 122.858 109.247C121.633 108.748 117.708 107.262 114.623 106.185C111.527 104.949 111.277 103.145 111.277 101.932C111.153 100.627 109.349 98.9032 108.589 97.6215C107.693 96.3399 107.557 94.6045 107.285 94.9788C107.035 95.3871 108.895 100.003 108.589 100.208C108.272 100.332 107.557 98.9032 106.661 97.7463C105.754 96.544 107.557 97.1678 104.722 91.6442C101.886 86.1206 105.618 83.2851 105.833 80.3928C106.003 77.512 108.272 81.5044 107.035 79.5649C105.833 77.6367 107.035 73.8371 106.139 72.4307C105.311 71.0016 100.491 74.0413 100.491 74.0413C100.616 72.6122 104.937 70.2984 107.943 68.1094C110.96 65.9203 112.967 67.7351 115.406 68.4269C117.924 69.2549 118.037 69.0054 117.209 68.1094C116.359 67.2814 117.584 67.0319 119.523 67.2814C121.326 67.6103 121.962 69.9127 124.842 69.5838C127.871 69.3797 125.171 70.1623 125.546 70.9902C125.954 71.8522 125.171 71.6935 123.107 72.9297C121.179 74.2114 123.243 74.3362 126.646 76.8428C130.06 79.3607 129.084 75.2322 128.631 73.304C128.177 71.3986 131.137 72.9297 131.137 72.9297C133.27 74.3362 132.873 73.0545 134.347 73.4515C135.833 73.8258 140.2 77.5346 140.2 77.5346C134.88 80.3702 138.226 80.631 139.122 81.3229C140.007 82.0601 137.319 83.2624 137.319 83.2624C136.207 82.1849 136.094 83.3872 135.379 83.7841C134.676 84.1584 135.255 85.1906 135.255 85.1906C131.659 85.769 132.419 89.6367 132.566 90.544C132.566 91.4287 130.105 92.8465 129.527 94.2642C128.948 95.5459 131.137 98.3814 129.935 98.5062C128.699 98.699 127.746 94.2642 121.497 95.8748C119.568 96.3739 115.474 98.5062 117.708 102.805C120.022 107.251 123.64 101.603 124.842 102.226C126.067 102.884 124.468 105.652 124.706 105.765C124.956 105.89 128.12 105.89 128.324 109.678C128.495 113.466 133.27 113.103 134.222 113.217C135.323 113.217 138.714 110.404 139.168 110.336C139.576 110.143 141.606 108.533 145.803 110.914C150.056 113.217 152.109 112.899 153.515 113.931C154.922 114.964 154.037 116.96 155.319 117.674C156.6 118.378 162.124 117.47 163.53 119.648C164.959 121.837 157.882 133.088 155.704 134.313C153.515 135.55 152.619 138.43 150.305 140.211C147.992 142.026 145.099 144.328 142.139 146.064C139.508 147.538 139.122 150.306 137.897 151.202C158.086 146.71 173.126 128.699 173.126 107.24C173.126 82.4231 152.937 62.2341 128.12 62.2341L128.245 62.1094L128.256 62.1321ZM138.805 104.302C138.226 104.495 136.99 105.731 133.78 103.792C130.695 101.863 128.585 102.317 128.256 101.988C128.256 101.988 127.928 101.285 129.357 101.092C132.169 100.786 135.629 103.724 136.491 103.724C137.353 103.724 137.704 102.896 139.122 103.417C140.529 103.916 139.428 104.245 138.805 104.302ZM124.014 66.6349C123.686 66.4647 124.219 66.1358 124.593 65.7388C124.786 65.5574 124.718 65.0356 124.911 64.8542C125.614 64.1283 128.835 63.2436 128.256 65.0243C127.553 66.7596 124.536 66.9638 124.014 66.6349ZM131.92 72.3626C130.695 72.2379 128.177 72.0337 128.585 71.4553C130.514 69.6746 128.007 69.0167 126.396 69.0167C124.786 68.892 124.207 67.9846 124.967 67.7918C125.75 67.6216 128.914 67.9165 129.493 68.3135C130.003 68.6878 132.839 69.9241 133.009 70.7521C133.168 71.58 133.009 72.3626 131.931 72.3626H131.92ZM141.368 72.0337C140.461 72.6122 136.048 69.391 135.266 68.6991C131.67 65.6027 129.538 66.7143 128.835 66.0564C128.132 65.4326 128.336 64.8542 129.538 63.8787C130.774 62.926 133.984 64.253 135.969 64.4459C137.909 64.65 140.211 66.1812 140.211 67.9846C140.336 69.5952 142.343 71.1944 141.447 72.0224H141.368V72.0337Z" fill="#00D2FF"/>
  <path d="M138.26 151.292C135.107 151.996 131.818 152.37 128.449 152.37C103.599 152.37 83.4663 132.226 83.4663 107.387C83.4663 82.5479 103.61 62.4043 128.449 62.4043C131.818 62.4043 135.096 62.7786 138.26 63.4818C118.139 67.9506 103.088 85.9051 103.088 107.387C103.088 128.869 118.139 146.835 138.26 151.304V151.292Z" fill="#001E2B" stroke="#001E2B" stroke-miterlimit="10"/>
  <path d="M133.995 166.604C133.995 169.088 132.362 171.186 130.105 171.901C129.583 172.071 129.016 172.15 128.449 172.15C125.387 172.15 122.903 169.666 122.903 166.604C122.903 163.542 125.387 161.058 128.449 161.058C129.028 161.058 129.583 161.148 130.105 161.307C132.362 162.01 133.995 164.12 133.995 166.604Z" fill="#001E2B" stroke="#001E2B" stroke-miterlimit="10"/>
  <path d="M133.996 166.604C133.996 169.088 132.362 171.187 130.105 171.901C127.859 171.198 126.215 169.088 126.215 166.604C126.215 164.12 127.859 162.022 130.105 161.308C132.362 162.011 133.996 164.12 133.996 166.604Z" fill="#00ED64" stroke="#001E2B" stroke-miterlimit="10"/>
  <path d="M155.954 184.57H100.934C105.278 173.637 115.951 165.901 128.438 165.901C129.89 165.901 131.308 166.003 132.714 166.208C143.319 167.739 152.109 174.896 155.954 184.57Z" fill="#001E2B" stroke="#001E2B" stroke-miterlimit="10"/>
  <path d="M155.954 184.571H109.485C113.33 174.907 122.12 167.739 132.725 166.208C143.33 167.739 152.12 174.896 155.965 184.571H155.954Z" fill="#00ED64" stroke="#001E2B" stroke-miterlimit="10"/>
  <path d="M374.548 109.745L372.769 109.671L372.542 115.156L374.321 115.229L374.548 109.745Z" fill="#00D2FF" stroke="#001E2B" stroke-miterlimit="10"/>
  <path d="M374.015 106.71L373.562 106.691L373.437 109.694L373.891 109.713L374.015 106.71Z" fill="#00ED64" stroke="#001E2B" stroke-miterlimit="10"/>
  <path d="M373.609 115.201L373.269 115.187C372.017 115.135 370.96 116.108 370.909 117.359L369.171 159.334C369.12 160.586 370.092 161.643 371.344 161.695L371.684 161.709C372.936 161.761 373.992 160.788 374.044 159.536L375.782 117.561C375.833 116.309 374.861 115.252 373.609 115.201Z" fill="#00D2FF" stroke="#001E2B" stroke-miterlimit="10"/>
  <path d="M374.79 121.205L371.673 121.076C370.741 121.037 369.954 121.762 369.915 122.694L369.495 132.837C369.457 133.769 370.181 134.557 371.114 134.595L374.23 134.724C375.163 134.763 375.95 134.038 375.989 133.106L376.408 122.963C376.447 122.031 375.722 121.243 374.79 121.205Z" fill="#00D2FF" stroke="#001E2B" stroke-miterlimit="10"/>
  <path d="M373.201 115.179L371.273 161.693C371.273 161.693 369.061 161.795 369.197 158.495C369.333 155.194 370.592 134.574 370.592 134.574C370.592 134.574 370.864 118.332 370.91 117.13C370.955 115.928 372.089 115.122 373.201 115.168V115.179Z" fill="#001E2B" stroke="#001E2B" stroke-miterlimit="10"/>
  <path d="M372.305 121.1L371.749 134.62C371.749 134.62 369.412 135.028 369.48 133.361L369.866 124.049C369.923 122.801 369.288 120.975 372.305 121.1Z" fill="#001E2B" stroke="#001E2B" stroke-miterlimit="10"/>
  <path d="M382.138 173.092L369.696 171.288L383.454 76.6953L395.896 78.4987L382.138 173.092ZM389.272 80.3815C388.308 80.2454 387.412 80.9032 387.276 81.8673C387.14 82.8314 387.798 83.7274 388.762 83.8635C389.726 83.9996 390.622 83.3418 390.758 82.3777C390.894 81.4136 390.236 80.5176 389.272 80.3815Z" fill="#00ED64" stroke="#001E2B" stroke-miterlimit="10"/>
  <path d="M382.796 173.194L370.354 171.391L384.112 76.7979L396.554 78.6013L382.796 173.194ZM389.93 80.484C388.966 80.3479 388.07 81.0058 387.934 81.9698C387.798 82.9339 388.456 83.83 389.42 83.9661C390.384 84.1022 391.28 83.4443 391.416 82.4802C391.552 81.5162 390.895 80.6201 389.93 80.484Z" fill="#00D2FF" stroke="#001E2B" stroke-miterlimit="10"/>
  <path d="M382.388 88.6729L387.945 89.4781" stroke="#001E2B" stroke-miterlimit="10" stroke-linecap="round"/>
  <path d="M382.138 90.3623L385.7 90.884" stroke="#001E2B" stroke-miterlimit="10" stroke-linecap="round"/>
  <path d="M381.889 92.0527L385.461 92.5745" stroke="#001E2B" stroke-miterlimit="10" stroke-linecap="round"/>
  <path d="M381.65 93.7422L385.212 94.2639" stroke="#001E2B" stroke-miterlimit="10" stroke-linecap="round"/>
  <path d="M381.401 95.4434L384.962 95.9538" stroke="#001E2B" stroke-miterlimit="10" stroke-linecap="round"/>
  <path d="M381.151 97.1338L386.72 97.9391" stroke="#001E2B" stroke-miterlimit="10" stroke-linecap="round"/>
  <path d="M380.913 98.8242L384.475 99.346" stroke="#001E2B" stroke-miterlimit="10" stroke-linecap="round"/>
  <path d="M380.664 100.514L384.225 101.035" stroke="#001E2B" stroke-miterlimit="10" stroke-linecap="round"/>
  <path d="M380.414 102.204L383.987 102.726" stroke="#001E2B" stroke-miterlimit="10" stroke-linecap="round"/>
  <path d="M380.176 103.894L383.738 104.415" stroke="#001E2B" stroke-miterlimit="10" stroke-linecap="round"/>
  <path d="M379.926 105.584L385.484 106.401" stroke="#001E2B" stroke-miterlimit="10" stroke-linecap="round"/>
  <path d="M379.677 107.273L383.25 107.795" stroke="#001E2B" stroke-miterlimit="10" stroke-linecap="round"/>
  <path d="M379.439 108.975L383 109.485" stroke="#001E2B" stroke-miterlimit="10" stroke-linecap="round"/>
  <path d="M379.189 110.665L382.751 111.175" stroke="#001E2B" stroke-miterlimit="10" stroke-linecap="round"/>
  <path d="M378.94 112.354L382.513 112.876" stroke="#001E2B" stroke-miterlimit="10" stroke-linecap="round"/>
  <path d="M378.702 114.045L384.259 114.85" stroke="#001E2B" stroke-miterlimit="10" stroke-linecap="round"/>
  <path d="M378.452 115.734L382.014 116.256" stroke="#001E2B" stroke-miterlimit="10" stroke-linecap="round"/>
  <path d="M378.203 117.425L381.764 117.947" stroke="#001E2B" stroke-miterlimit="10" stroke-linecap="round"/>
  <path d="M377.953 119.115L381.526 119.637" stroke="#001E2B" stroke-miterlimit="10" stroke-linecap="round"/>
  <path d="M377.715 120.805L381.276 121.326" stroke="#001E2B" stroke-miterlimit="10" stroke-linecap="round"/>
  <path d="M377.465 122.506L383.023 123.311" stroke="#001E2B" stroke-miterlimit="10" stroke-linecap="round"/>
  <path d="M377.216 124.196L380.789 124.707" stroke="#001E2B" stroke-miterlimit="10" stroke-linecap="round"/>
  <path d="M376.978 125.886L380.539 126.407" stroke="#001E2B" stroke-miterlimit="10" stroke-linecap="round"/>
  <path d="M376.728 127.576L380.289 128.098" stroke="#001E2B" stroke-miterlimit="10" stroke-linecap="round"/>
  <path d="M376.479 129.266L380.051 129.787" stroke="#001E2B" stroke-miterlimit="10" stroke-linecap="round"/>
  <path d="M376.24 130.956L381.798 131.761" stroke="#001E2B" stroke-miterlimit="10" stroke-linecap="round"/>
  <path d="M375.991 132.646L379.552 133.167" stroke="#001E2B" stroke-miterlimit="10" stroke-linecap="round"/>
  <path d="M375.741 134.336L379.314 134.858" stroke="#001E2B" stroke-miterlimit="10" stroke-linecap="round"/>
  <path d="M375.503 136.037L379.064 136.548" stroke="#001E2B" stroke-miterlimit="10" stroke-linecap="round"/>
  <path d="M375.253 137.728L378.815 138.238" stroke="#001E2B" stroke-miterlimit="10" stroke-linecap="round"/>
  <path d="M375.004 139.417L380.573 140.222" stroke="#001E2B" stroke-miterlimit="10" stroke-linecap="round"/>
  <path d="M364.15 135.175C364.707 135.175 365.159 134.723 365.159 134.166C365.159 133.608 364.707 133.156 364.15 133.156C363.592 133.156 363.14 133.608 363.14 134.166C363.14 134.723 363.592 135.175 364.15 135.175Z" fill="#001E2B"/>
  <path d="M361.189 112.717C361.189 112.717 363.185 112.389 363.525 115.258C363.866 118.105 365.397 130.944 365.397 130.944C365.397 130.944 363.639 133.326 363.752 134.211" stroke="#001E2B" stroke-width="2" stroke-linecap="round" stroke-linejoin="round"/>
  <path d="M359.201 106.582C359.079 105.556 358.148 104.823 357.121 104.945C356.095 105.068 355.362 105.999 355.485 107.025L355.812 109.773C355.935 110.8 356.866 111.532 357.892 111.41C358.919 111.288 359.651 110.356 359.529 109.33L359.201 106.582Z" fill="#00D2FF" stroke="#001E2B" stroke-miterlimit="10"/>
  <path d="M359.643 109.252L355.825 109.707C355.209 109.78 354.769 110.339 354.843 110.955L360.945 162.131C361.019 162.747 361.577 163.186 362.193 163.113L366.011 162.658C366.627 162.584 367.067 162.025 366.993 161.41L360.891 110.234C360.817 109.618 360.259 109.178 359.643 109.252Z" fill="#00D2FF" stroke="#001E2B" stroke-miterlimit="10"/>
  <path d="M356.612 109.621L355.812 109.717C355.196 109.79 354.757 110.349 354.83 110.965L360.933 162.141C361.006 162.756 361.565 163.196 362.18 163.123L362.98 163.027C363.596 162.954 364.036 162.395 363.962 161.779L357.86 110.603C357.786 109.988 357.228 109.548 356.612 109.621Z" fill="#001E2B" stroke="#001E2B" stroke-miterlimit="10"/>
  <path d="M357.095 109.372L356.811 107.001C356.698 106.015 356.494 105.005 357.129 104.926C357.129 104.926 355.257 105.028 355.496 107.001L355.824 109.758L357.095 109.372Z" fill="#001E2B" stroke="#001E2B" stroke-miterlimit="10"/>
  <path d="M223.916 379.779V184.559H66.0566V379.779H223.916Z" fill="#00ED64" stroke="#001E2B" stroke-miterlimit="10"/>
  <path d="M66.0566 184.559H24.1929V379.779H66.0566V184.559Z" fill="#001E2B" stroke="#001E2B" stroke-miterlimit="10"/>
  <path d="M401.533 184.559H66.0566V194.29H401.533V379.779H411.265V194.29V184.559H401.533Z" fill="#00ED64" stroke="#001E2B" stroke-miterlimit="10"/>
  <path d="M211.859 202.241H75.7197C75.0933 202.241 74.5854 202.749 74.5854 203.375V272.154C74.5854 272.78 75.0933 273.288 75.7197 273.288H211.859C212.485 273.288 212.993 272.78 212.993 272.154V203.375C212.993 202.749 212.485 202.241 211.859 202.241Z" fill="#001E2B" stroke="#001E2B" stroke-miterlimit="10"/>
  <path d="M211.859 282.157H75.7197C75.0933 282.157 74.5854 282.665 74.5854 283.291V352.07C74.5854 352.696 75.0933 353.204 75.7197 353.204H211.859C212.485 353.204 212.993 352.696 212.993 352.07V283.291C212.993 282.665 212.485 282.157 211.859 282.157Z" fill="#001E2B" stroke="#001E2B" stroke-miterlimit="10"/>
  <path d="M213.05 282.157H76.9106C76.2842 282.157 75.7764 282.665 75.7764 283.291V352.07C75.7764 352.696 76.2842 353.204 76.9106 353.204H213.05C213.676 353.204 214.184 352.696 214.184 352.07V283.291C214.184 282.665 213.676 282.157 213.05 282.157Z" fill="#00ED64" stroke="#001E2B" stroke-miterlimit="10"/>
  <path d="M316.207 184.559H316.173L313.484 182.88L312.089 182.007L313.484 181.11L316.173 179.409H316.207V184.559Z" fill="white" stroke="#001E2B" stroke-linejoin="round"/>
  <path d="M345.356 179.409H316.207V184.57H345.356V179.409Z" fill="#00D2FF" stroke="#001E2B" stroke-linejoin="round"/>
  <path d="M350.721 179.409H345.367V184.57H350.721V179.409Z" fill="white" stroke="#001E2B" stroke-linejoin="round"/>
  <path d="M343.564 181.983H318.339" stroke="#001E2B" stroke-linejoin="round"/>
  <path d="M313.484 182.88L312.089 182.006L313.496 181.11C313.643 181.383 313.723 181.677 313.723 181.984C313.723 182.29 313.643 182.596 313.496 182.88H313.484Z" fill="#001E2B" stroke="#001E2B" stroke-linejoin="round"/>
  <path d="M308.98 119.715L302.907 132.249L315.442 138.322L321.515 125.787L308.98 119.715Z" fill="#001E2B" stroke="#001E2B" stroke-linecap="round" stroke-linejoin="round"/>
  <path d="M303.349 121.683L297.276 134.218L309.811 140.291L315.884 127.756L303.349 121.683Z" fill="#00D2FF" stroke="#001E2B" stroke-linecap="round" stroke-linejoin="round"/>
  <path d="M308.98 119.715L302.907 132.249L315.442 138.322L321.515 125.787L308.98 119.715Z" fill="#001E2B" stroke="#001E2B" stroke-linecap="round" stroke-linejoin="round"/>
  <path d="M303.349 121.683L297.276 134.218L309.811 140.291L315.884 127.756L303.349 121.683Z" fill="#00ED64" stroke="#001E2B" stroke-linecap="round" stroke-linejoin="round"/>
  <path d="M272.25 97.9236L266.177 110.458L278.712 116.531L284.785 103.996L272.25 97.9236Z" fill="white" stroke="#001E2B" stroke-linecap="round" stroke-linejoin="round"/>
  <path d="M402.781 194.29H360.917V379.779H402.781V194.29Z" fill="#001E2B" stroke="#001E2B" stroke-miterlimit="10"/>
  <path d="M179.909 313.882H125.784V321.481H179.909V313.882Z" fill="white" stroke="#001E2B" stroke-miterlimit="10"/>
  <path d="M128.166 313.882H104.495V321.481H128.166V313.882Z" fill="#001E2B" stroke="#001E2B" stroke-miterlimit="10"/>
  <path d="M368.392 137.966H356.687V184.571H368.392V137.966Z" fill="#001E2B" stroke="#001E2B" stroke-miterlimit="10"/>
  <path d="M392.04 137.966H364.796V184.571H392.04V137.966Z" fill="#00ED64" stroke="#001E2B" stroke-miterlimit="10"/>
  <path d="M213.05 202.241H76.9106C76.2842 202.241 75.7764 202.749 75.7764 203.375V272.154C75.7764 272.78 76.2842 273.288 76.9106 273.288H213.05C213.676 273.288 214.184 272.78 214.184 272.154V203.375C214.184 202.749 213.676 202.241 213.05 202.241Z" fill="#00ED64" stroke="#001E2B" stroke-miterlimit="10"/>
  <path d="M179.909 233.965H125.784V241.564H179.909V233.965Z" fill="white" stroke="#001E2B" stroke-miterlimit="10"/>
  <path d="M128.166 233.965H104.495V241.564H128.166V233.965Z" fill="#001E2B" stroke="#001E2B" stroke-miterlimit="10"/>
  <path d="M104.495 241.575V248.539C104.495 248.539 176.528 241.575 175.768 241.575H104.495Z" fill="#001E2B" stroke="#001E2B" stroke-miterlimit="10"/>
  <path d="M104.495 321.48V328.445C104.495 328.445 176.528 321.48 175.768 321.48H104.495Z" fill="#001E2B" stroke="#001E2B" stroke-miterlimit="10"/>
  <path d="M130.049 151.19H126.839V161.319H130.049V151.19Z" fill="#001E2B" stroke="#001E2B" stroke-miterlimit="10"/>
  <path d="M128.631 59.1606C128.891 59.1606 129.152 59.1719 129.413 59.1833V53.9319C129.152 53.9319 128.891 53.9092 128.631 53.9092C127.338 53.9092 126.056 53.9659 124.786 54.0566V59.3194C126.056 59.2173 127.338 59.1492 128.631 59.1492V59.1606Z" fill="#001E2B" stroke="#001E2B" stroke-miterlimit="10"/>
  <path d="M129.413 53.9313V59.1827C155.682 59.6023 176.857 81.0162 176.857 107.387C176.857 133.757 155.262 155.613 128.631 155.613C117.436 155.613 107.126 151.78 98.9484 145.383L95.2168 149.114C104.37 156.453 115.984 160.853 128.642 160.853C158.177 160.853 182.12 136.91 182.12 107.375C182.12 77.8404 158.596 54.3396 129.436 53.9199L129.413 53.9313Z" fill="#00ED64" stroke="#001E2B" stroke-miterlimit="10"/>
  <path d="M95.4325 142.354L91.7236 146.063C92.8465 147.13 94.0034 148.15 95.2057 149.114L98.9372 145.383C97.7123 144.43 96.544 143.421 95.4212 142.354H95.4325Z" fill="#001E2B" stroke="#001E2B" stroke-miterlimit="10"/>
  <path d="M200.88 299.125H294.225" stroke="#001E2B" stroke-miterlimit="10"/>
  <path d="M349.779 79.5191C356.857 79.5191 362.607 73.7687 362.607 66.6912C362.607 59.6137 356.857 53.8633 349.779 53.8633V60.0788C353.431 60.0788 356.403 63.0504 356.403 66.7025C356.403 70.3547 353.431 73.3263 349.779 73.3263V79.5418V79.5191Z" fill="#001E2B" stroke="#001E2B" stroke-linecap="round" stroke-linejoin="round"/>
  <path d="M352.422 76.8765C359.499 76.8765 365.25 71.1261 365.25 64.0486C365.25 56.9712 359.499 51.2207 352.422 51.2207V57.4362C356.074 57.4362 359.046 60.4078 359.046 64.06C359.046 67.7121 356.074 70.6838 352.422 70.6838V76.8992V76.8765Z" fill="#00D2FF" stroke="#001E2B" stroke-linecap="round" stroke-linejoin="round"/>
  <path d="M349.779 79.5191C356.857 79.5191 362.607 73.7687 362.607 66.6912C362.607 59.6137 356.857 53.8633 349.779 53.8633V60.0788C353.431 60.0788 356.403 63.0504 356.403 66.7025C356.403 70.3547 353.431 73.3263 349.779 73.3263V79.5418V79.5191Z" fill="#001E2B" stroke="#001E2B" stroke-linecap="round" stroke-linejoin="round"/>
  <path d="M352.422 76.8765C359.499 76.8765 365.25 71.1261 365.25 64.0486C365.25 56.9712 359.499 51.2207 352.422 51.2207V57.4362C356.074 57.4362 359.046 60.4078 359.046 64.06C359.046 67.7121 356.074 70.6838 352.422 70.6838V76.8992V76.8765Z" fill="white" stroke="#001E2B" stroke-linecap="round" stroke-linejoin="round"/>
  <path d="M29.6025 132.249V122.721C32.4834 122.699 34.6611 121.837 36.1129 120.158C37.5647 118.479 38.3019 114.702 38.3019 108.827C38.3019 104.358 38.4721 101.035 38.801 98.8801C39.1299 96.7251 39.9352 94.9217 41.2055 93.4586C42.4758 92.0068 44.1204 90.952 46.128 90.3055C48.1355 89.659 50.9824 89.3301 54.6686 89.3301H56.7782V98.8234C52.9446 98.8234 50.6421 99.2204 49.8936 100.014C49.145 100.808 48.7367 102.362 48.68 104.665C48.5212 111.016 48.317 115.145 48.0675 117.05C47.818 118.956 47.2282 120.782 46.3208 122.506C45.4021 124.241 43.7121 125.897 41.2169 127.485C43.576 128.914 45.2887 130.627 46.3548 132.612C47.421 134.596 48.0561 137.455 48.2376 141.186L48.8387 152.744C49.0769 153.855 49.644 154.695 50.5514 155.262C51.4474 155.829 53.5117 156.112 56.7442 156.112V165.64H54.6799C50.4493 165.64 47.1715 165.152 44.869 164.188C42.5666 163.224 40.8993 161.636 39.8671 159.447C38.835 157.247 38.3133 153.708 38.3133 148.808C38.3133 143.409 38.1318 139.95 37.7575 138.441C37.3832 136.933 36.6687 135.549 35.6139 134.29C34.559 133.031 32.5515 132.351 29.6139 132.249H29.6025Z" fill="#001E2B" stroke="#001E2B" stroke-linecap="round" stroke-linejoin="round"/>
  <path d="M26.4043 129.05V119.523C29.2852 119.5 31.4629 118.638 32.9147 116.96C34.3665 115.281 35.1037 111.504 35.1037 105.629C35.1037 101.16 35.2738 97.8369 35.6027 95.6819C35.9317 93.5269 36.737 91.7235 38.0073 90.2604C39.2776 88.8086 40.9222 87.7538 42.9297 87.1073C44.9373 86.4608 47.7842 86.1318 51.4703 86.1318H53.58V95.6252C49.7463 95.6252 47.4439 96.0221 46.6953 96.8161C45.9467 97.61 45.5384 99.1639 45.4817 101.466C45.3229 107.818 45.1188 111.946 44.8692 113.852C44.6197 115.757 44.0299 117.583 43.1226 119.307C42.2038 121.043 40.5139 122.699 38.0186 124.287C40.3778 125.716 42.0904 127.428 43.1566 129.413C44.2227 131.398 44.8579 134.256 45.0394 137.988L45.6405 149.546C45.8787 150.657 46.4458 151.496 47.3532 152.063C48.2492 152.631 50.3135 152.914 53.546 152.914V162.442H51.4817C47.2511 162.442 43.9732 161.954 41.6708 160.99C39.3683 160.026 37.701 158.438 36.6689 156.249C35.6368 154.048 35.115 150.51 35.115 145.61C35.115 140.211 34.9336 136.752 34.5593 135.243C34.185 133.735 33.4704 132.351 32.4156 131.092C31.3608 129.833 29.3532 129.152 26.4156 129.05H26.4043Z" fill="black"/>
  <path d="M26.4043 129.05V119.523C29.2852 119.5 31.4629 118.638 32.9147 116.96C34.3665 115.281 35.1037 111.504 35.1037 105.629C35.1037 101.16 35.2738 97.8369 35.6027 95.6819C35.9317 93.5269 36.737 91.7235 38.0073 90.2604C39.2776 88.8086 40.9222 87.7538 42.9297 87.1073C44.9373 86.4608 47.7842 86.1318 51.4703 86.1318H53.58V95.6252C49.7463 95.6252 47.4439 96.0221 46.6953 96.8161C45.9467 97.61 45.5384 99.1639 45.4817 101.466C45.3229 107.818 45.1188 111.946 44.8692 113.852C44.6197 115.757 44.0299 117.583 43.1226 119.307C42.2038 121.043 40.5139 122.699 38.0186 124.287C40.3778 125.716 42.0904 127.428 43.1566 129.413C44.2227 131.398 44.8579 134.256 45.0394 137.988L45.6405 149.546C45.8787 150.657 46.4458 151.496 47.3532 152.063C48.2492 152.631 50.3135 152.914 53.546 152.914V162.442H51.4817C47.2511 162.442 43.9732 161.954 41.6708 160.99C39.3683 160.026 37.701 158.438 36.6689 156.249C35.6368 154.048 35.115 150.51 35.115 145.61C35.115 140.211 34.9336 136.752 34.5593 135.243C34.185 133.735 33.4704 132.351 32.4156 131.092C31.3608 129.833 29.3532 129.152 26.4156 129.05H26.4043Z" fill="black"/>
  <path d="M26.4043 129.05V119.523C29.2852 119.5 31.4629 118.638 32.9147 116.96C34.3665 115.281 35.1037 111.504 35.1037 105.629C35.1037 101.16 35.2738 97.8369 35.6027 95.6819C35.9317 93.5269 36.737 91.7235 38.0073 90.2604C39.2776 88.8086 40.9222 87.7538 42.9297 87.1073C44.9373 86.4608 47.7842 86.1318 51.4703 86.1318H53.58V95.6252C49.7463 95.6252 47.4439 96.0221 46.6953 96.8161C45.9467 97.61 45.5384 99.1639 45.4817 101.466C45.3229 107.818 45.1188 111.946 44.8692 113.852C44.6197 115.757 44.0299 117.583 43.1226 119.307C42.2038 121.043 40.5139 122.699 38.0186 124.287C40.3778 125.716 42.0904 127.428 43.1566 129.413C44.2227 131.398 44.8579 134.256 45.0394 137.988L45.6405 149.546C45.8787 150.657 46.4458 151.496 47.3532 152.063C48.2492 152.631 50.3135 152.914 53.546 152.914V162.442H51.4817C47.2511 162.442 43.9732 161.954 41.6708 160.99C39.3683 160.026 37.701 158.438 36.6689 156.249C35.6368 154.048 35.115 150.51 35.115 145.61C35.115 140.211 34.9336 136.752 34.5593 135.243C34.185 133.735 33.4704 132.351 32.4156 131.092C31.3608 129.833 29.3532 129.152 26.4156 129.05H26.4043Z" fill="white"/>
  <path d="M26.4043 129.05V119.523C29.2852 119.5 31.4629 118.638 32.9147 116.96C34.3665 115.281 35.1037 111.504 35.1037 105.629C35.1037 101.16 35.2738 97.8369 35.6027 95.6819C35.9317 93.5269 36.737 91.7235 38.0073 90.2604C39.2776 88.8086 40.9222 87.7538 42.9297 87.1073C44.9373 86.4608 47.7842 86.1318 51.4703 86.1318H53.58V95.6252C49.7463 95.6252 47.4439 96.0221 46.6953 96.8161C45.9467 97.61 45.5384 99.1639 45.4817 101.466C45.3229 107.818 45.1188 111.946 44.8692 113.852C44.6197 115.757 44.0299 117.583 43.1226 119.307C42.2038 121.043 40.5139 122.699 38.0186 124.287C40.3778 125.716 42.0904 127.428 43.1566 129.413C44.2227 131.398 44.8579 134.256 45.0394 137.988L45.6405 149.546C45.8787 150.657 46.4458 151.496 47.3532 152.063C48.2492 152.631 50.3135 152.914 53.546 152.914V162.442H51.4817C47.2511 162.442 43.9732 161.954 41.6708 160.99C39.3683 160.026 37.701 158.438 36.6689 156.249C35.6368 154.048 35.115 150.51 35.115 145.61C35.115 140.211 34.9336 136.752 34.5593 135.243C34.185 133.735 33.4704 132.351 32.4156 131.092C31.3608 129.833 29.3532 129.152 26.4156 129.05H26.4043Z" stroke="#001E2B" stroke-linecap="round" stroke-linejoin="round"/>
  <path d="M26.4043 129.05V119.523C29.2852 119.5 31.4629 118.638 32.9147 116.96C34.3665 115.281 35.1037 111.504 35.1037 105.629C35.1037 101.16 35.2738 97.8369 35.6027 95.6819C35.9317 93.5269 36.737 91.7235 38.0073 90.2604C39.2776 88.8086 40.9222 87.7538 42.9297 87.1073C44.9373 86.4608 47.7842 86.1318 51.4703 86.1318H53.58V95.6252C49.7463 95.6252 47.4439 96.0221 46.6953 96.8161C45.9467 97.61 45.5384 99.1639 45.4817 101.466C45.3229 107.818 45.1188 111.946 44.8692 113.852C44.6197 115.757 44.0299 117.583 43.1226 119.307C42.2038 121.043 40.5139 122.699 38.0186 124.287C40.3778 125.716 42.0904 127.428 43.1566 129.413C44.2227 131.398 44.8579 134.256 45.0394 137.988L45.6405 149.546C45.8787 150.657 46.4458 151.496 47.3532 152.063C48.2492 152.631 50.3135 152.914 53.546 152.914V162.442H51.4817C47.2511 162.442 43.9732 161.954 41.6708 160.99C39.3683 160.026 37.701 158.438 36.6689 156.249C35.6368 154.048 35.115 150.51 35.115 145.61C35.115 140.211 34.9336 136.752 34.5593 135.243C34.185 133.735 33.4704 132.351 32.4156 131.092C31.3608 129.833 29.3532 129.152 26.4156 129.05H26.4043Z" fill="#00D2FF" stroke="#001E2B" stroke-linecap="round" stroke-linejoin="round"/>
  <path d="M29.6025 132.249V122.721C32.4834 122.699 34.6611 121.837 36.1129 120.158C37.5647 118.479 38.3019 114.702 38.3019 108.827C38.3019 104.358 38.4721 101.035 38.801 98.8801C39.1299 96.7251 39.9352 94.9217 41.2055 93.4586C42.4758 92.0068 44.1204 90.952 46.128 90.3055C48.1355 89.659 50.9824 89.3301 54.6686 89.3301H56.7782V98.8234C52.9446 98.8234 50.6421 99.2204 49.8936 100.014C49.145 100.808 48.7367 102.362 48.68 104.665C48.5212 111.016 48.317 115.145 48.0675 117.05C47.818 118.956 47.2282 120.782 46.3208 122.506C45.4021 124.241 43.7121 125.897 41.2169 127.485C43.576 128.914 45.2887 130.627 46.3548 132.612C47.421 134.596 48.0561 137.455 48.2376 141.186L48.8387 152.744C49.0769 153.855 49.644 154.695 50.5514 155.262C51.4474 155.829 53.5117 156.112 56.7442 156.112V165.64H54.6799C50.4493 165.64 47.1715 165.152 44.869 164.188C42.5666 163.224 40.8993 161.636 39.8671 159.447C38.835 157.247 38.3133 153.708 38.3133 148.808C38.3133 143.409 38.1318 139.95 37.7575 138.441C37.3832 136.933 36.6687 135.549 35.6139 134.29C34.559 133.031 32.5515 132.351 29.6139 132.249H29.6025Z" fill="#001E2B" stroke="#001E2B" stroke-linecap="round" stroke-linejoin="round"/>
  <path d="M26.4043 129.05V119.523C29.2852 119.5 31.4629 118.638 32.9147 116.96C34.3665 115.281 35.1037 111.504 35.1037 105.629C35.1037 101.16 35.2738 97.8369 35.6027 95.6819C35.9317 93.5269 36.737 91.7235 38.0073 90.2604C39.2776 88.8086 40.9222 87.7538 42.9297 87.1073C44.9373 86.4608 47.7842 86.1318 51.4703 86.1318H53.58V95.6252C49.7463 95.6252 47.4439 96.0221 46.6953 96.8161C45.9467 97.61 45.5384 99.1639 45.4817 101.466C45.3229 107.818 45.1188 111.946 44.8692 113.852C44.6197 115.757 44.0299 117.583 43.1226 119.307C42.2038 121.043 40.5139 122.699 38.0186 124.287C40.3778 125.716 42.0904 127.428 43.1566 129.413C44.2227 131.398 44.8579 134.256 45.0394 137.988L45.6405 149.546C45.8787 150.657 46.4458 151.496 47.3532 152.063C48.2492 152.631 50.3135 152.914 53.546 152.914V162.442H51.4817C47.2511 162.442 43.9732 161.954 41.6708 160.99C39.3683 160.026 37.701 158.438 36.6689 156.249C35.6368 154.048 35.115 150.51 35.115 145.61C35.115 140.211 34.9336 136.752 34.5593 135.243C34.185 133.735 33.4704 132.351 32.4156 131.092C31.3608 129.833 29.3532 129.152 26.4156 129.05H26.4043Z" fill="black"/>
  <path d="M26.4043 129.05V119.523C29.2852 119.5 31.4629 118.638 32.9147 116.96C34.3665 115.281 35.1037 111.504 35.1037 105.629C35.1037 101.16 35.2738 97.8369 35.6027 95.6819C35.9317 93.5269 36.737 91.7235 38.0073 90.2604C39.2776 88.8086 40.9222 87.7538 42.9297 87.1073C44.9373 86.4608 47.7842 86.1318 51.4703 86.1318H53.58V95.6252C49.7463 95.6252 47.4439 96.0221 46.6953 96.8161C45.9467 97.61 45.5384 99.1639 45.4817 101.466C45.3229 107.818 45.1188 111.946 44.8692 113.852C44.6197 115.757 44.0299 117.583 43.1226 119.307C42.2038 121.043 40.5139 122.699 38.0186 124.287C40.3778 125.716 42.0904 127.428 43.1566 129.413C44.2227 131.398 44.8579 134.256 45.0394 137.988L45.6405 149.546C45.8787 150.657 46.4458 151.496 47.3532 152.063C48.2492 152.631 50.3135 152.914 53.546 152.914V162.442H51.4817C47.2511 162.442 43.9732 161.954 41.6708 160.99C39.3683 160.026 37.701 158.438 36.6689 156.249C35.6368 154.048 35.115 150.51 35.115 145.61C35.115 140.211 34.9336 136.752 34.5593 135.243C34.185 133.735 33.4704 132.351 32.4156 131.092C31.3608 129.833 29.3532 129.152 26.4156 129.05H26.4043Z" fill="black"/>
  <path d="M26.4043 129.05V119.523C29.2852 119.5 31.4629 118.638 32.9147 116.96C34.3665 115.281 35.1037 111.504 35.1037 105.629C35.1037 101.16 35.2738 97.8369 35.6027 95.6819C35.9317 93.5269 36.737 91.7235 38.0073 90.2604C39.2776 88.8086 40.9222 87.7538 42.9297 87.1073C44.9373 86.4608 47.7842 86.1318 51.4703 86.1318H53.58V95.6252C49.7463 95.6252 47.4439 96.0221 46.6953 96.8161C45.9467 97.61 45.5384 99.1639 45.4817 101.466C45.3229 107.818 45.1188 111.946 44.8692 113.852C44.6197 115.757 44.0299 117.583 43.1226 119.307C42.2038 121.043 40.5139 122.699 38.0186 124.287C40.3778 125.716 42.0904 127.428 43.1566 129.413C44.2227 131.398 44.8579 134.256 45.0394 137.988L45.6405 149.546C45.8787 150.657 46.4458 151.496 47.3532 152.063C48.2492 152.631 50.3135 152.914 53.546 152.914V162.442H51.4817C47.2511 162.442 43.9732 161.954 41.6708 160.99C39.3683 160.026 37.701 158.438 36.6689 156.249C35.6368 154.048 35.115 150.51 35.115 145.61C35.115 140.211 34.9336 136.752 34.5593 135.243C34.185 133.735 33.4704 132.351 32.4156 131.092C31.3608 129.833 29.3532 129.152 26.4156 129.05H26.4043Z" fill="white"/>
  <path d="M26.4043 129.05V119.523C29.2852 119.5 31.4629 118.638 32.9147 116.96C34.3665 115.281 35.1037 111.504 35.1037 105.629C35.1037 101.16 35.2738 97.8369 35.6027 95.6819C35.9317 93.5269 36.737 91.7235 38.0073 90.2604C39.2776 88.8086 40.9222 87.7538 42.9297 87.1073C44.9373 86.4608 47.7842 86.1318 51.4703 86.1318H53.58V95.6252C49.7463 95.6252 47.4439 96.0221 46.6953 96.8161C45.9467 97.61 45.5384 99.1639 45.4817 101.466C45.3229 107.818 45.1188 111.946 44.8692 113.852C44.6197 115.757 44.0299 117.583 43.1226 119.307C42.2038 121.043 40.5139 122.699 38.0186 124.287C40.3778 125.716 42.0904 127.428 43.1566 129.413C44.2227 131.398 44.8579 134.256 45.0394 137.988L45.6405 149.546C45.8787 150.657 46.4458 151.496 47.3532 152.063C48.2492 152.631 50.3135 152.914 53.546 152.914V162.442H51.4817C47.2511 162.442 43.9732 161.954 41.6708 160.99C39.3683 160.026 37.701 158.438 36.6689 156.249C35.6368 154.048 35.115 150.51 35.115 145.61C35.115 140.211 34.9336 136.752 34.5593 135.243C34.185 133.735 33.4704 132.351 32.4156 131.092C31.3608 129.833 29.3532 129.152 26.4156 129.05H26.4043Z" stroke="#001E2B" stroke-linecap="round" stroke-linejoin="round"/>
  <path d="M26.4043 129.05V119.523C29.2852 119.5 31.4629 118.638 32.9147 116.96C34.3665 115.281 35.1037 111.504 35.1037 105.629C35.1037 101.16 35.2738 97.8369 35.6027 95.6819C35.9317 93.5269 36.737 91.7235 38.0073 90.2604C39.2776 88.8086 40.9222 87.7538 42.9297 87.1073C44.9373 86.4608 47.7842 86.1318 51.4703 86.1318H53.58V95.6252C49.7463 95.6252 47.4439 96.0221 46.6953 96.8161C45.9467 97.61 45.5384 99.1639 45.4817 101.466C45.3229 107.818 45.1188 111.946 44.8692 113.852C44.6197 115.757 44.0299 117.583 43.1226 119.307C42.2038 121.043 40.5139 122.699 38.0186 124.287C40.3778 125.716 42.0904 127.428 43.1566 129.413C44.2227 131.398 44.8579 134.256 45.0394 137.988L45.6405 149.546C45.8787 150.657 46.4458 151.496 47.3532 152.063C48.2492 152.631 50.3135 152.914 53.546 152.914V162.442H51.4817C47.2511 162.442 43.9732 161.954 41.6708 160.99C39.3683 160.026 37.701 158.438 36.6689 156.249C35.6368 154.048 35.115 150.51 35.115 145.61C35.115 140.211 34.9336 136.752 34.5593 135.243C34.185 133.735 33.4704 132.351 32.4156 131.092C31.3608 129.833 29.3532 129.152 26.4156 129.05H26.4043Z" fill="#00ED64" stroke="#001E2B" stroke-linecap="round" stroke-linejoin="round"/>
</svg>
