
<svg width="180" height="170" viewBox="0 0 180 170" fill="none" xmlns="http://www.w3.org/2000/svg">
  <path d="M87.3036 76.1777C87.3036 54.012 69.3346 36.04 47.166 36.04C24.9973 36.04 7.02832 54.0091 7.02832 76.1777C7.02832 101.171 27.2883 121.434 52.2843 121.434V117.613L49.3887 116.253C70.5201 115.1 87.3036 97.5994 87.3036 76.1777Z" fill="#001F2C" stroke="#001E2B" stroke-miterlimit="10"/>
  <path d="M162.698 4.27539H106.171C99.8934 4.27539 94.8076 9.3641 94.8076 15.6383V57.6075H138.911V69.1097L152.058 57.6075H174.06V15.6383C174.06 9.36113 168.972 4.27539 162.698 4.27539Z" fill="#001F2C" stroke="#001E2B" stroke-miterlimit="10"/>
  <path d="M162.698 1H106.171C99.8934 1 94.8076 6.0887 94.8076 12.3629V54.3321H138.911V65.8343L152.058 54.3321H174.06V12.3629C174.06 6.08574 168.972 1 162.698 1Z" fill="#00ED64" stroke="#001E2B" stroke-miterlimit="10"/>
  <path d="M161.408 12.668H107.46C106.536 12.668 105.788 13.4163 105.788 14.3395C105.788 15.2627 106.536 16.011 107.46 16.011H161.408C162.331 16.011 163.08 15.2627 163.08 14.3395C163.08 13.4163 162.331 12.668 161.408 12.668Z" fill="#001F2C" stroke="#001E2B" stroke-miterlimit="10"/>
  <path d="M161.408 32.585H107.46C106.536 32.585 105.788 33.3333 105.788 34.2565C105.788 35.1797 106.536 35.928 107.46 35.928H161.408C162.331 35.928 163.08 35.1797 163.08 34.2565C163.08 33.3333 162.331 32.585 161.408 32.585Z" fill="#001F2C" stroke="#001E2B" stroke-miterlimit="10"/>
  <path d="M133.336 42.5459H107.46C106.536 42.5459 105.788 43.2943 105.788 44.2174C105.788 45.1406 106.536 45.889 107.46 45.889H133.336C134.259 45.889 135.007 45.1406 135.007 44.2174C135.007 43.2943 134.259 42.5459 133.336 42.5459Z" fill="#001F2C" stroke="#001E2B" stroke-miterlimit="10"/>
  <path d="M137.088 22.626H107.46C106.536 22.626 105.788 23.3743 105.788 24.2975C105.788 25.2207 106.536 25.9691 107.46 25.9691H137.088C138.011 25.9691 138.759 25.2207 138.759 24.2975C138.759 23.3743 138.011 22.626 137.088 22.626Z" fill="#001F2C" stroke="#001E2B" stroke-miterlimit="10"/>
  <path d="M161.408 11.6641H107.46C106.536 11.6641 105.788 12.4124 105.788 13.3356C105.788 14.2588 106.536 15.0071 107.46 15.0071H161.408C162.331 15.0071 163.08 14.2588 163.08 13.3356C163.08 12.4124 162.331 11.6641 161.408 11.6641Z" fill="white" stroke="#001E2B" stroke-miterlimit="10"/>
  <path d="M161.408 31.5791H107.46C106.536 31.5791 105.788 32.3275 105.788 33.2506C105.788 34.1738 106.536 34.9222 107.46 34.9222H161.408C162.331 34.9222 163.08 34.1738 163.08 33.2506C163.08 32.3275 162.331 31.5791 161.408 31.5791Z" fill="white" stroke="#001E2B" stroke-miterlimit="10"/>
  <path d="M133.336 41.5381H107.46C106.536 41.5381 105.788 42.2865 105.788 43.2096C105.788 44.1328 106.536 44.8812 107.46 44.8812H133.336C134.259 44.8812 135.007 44.1328 135.007 43.2096C135.007 42.2865 134.259 41.5381 133.336 41.5381Z" fill="white" stroke="#001E2B" stroke-miterlimit="10"/>
  <path d="M137.088 21.6221H107.46C106.536 21.6221 105.788 22.3704 105.788 23.2936C105.788 24.2168 106.536 24.9651 107.46 24.9651H137.088C138.011 24.9651 138.759 24.2168 138.759 23.2936C138.759 22.3704 138.011 21.6221 137.088 21.6221Z" fill="white" stroke="#001E2B" stroke-miterlimit="10"/>
  <path d="M126.522 86.3132L124.777 75.1963L118.66 78.2608L126.522 86.3132Z" fill="#B45AF2" stroke="#001E2B" stroke-miterlimit="10"/>
  <path d="M126.315 84.9985L126.522 86.3144L118.66 78.262L119.383 77.9004L126.315 84.9985Z" fill="#001F2C"/>
  <path d="M125.073 83.4212C125.402 83.2552 125.707 83.0744 125.983 82.8848L126.522 86.3108L124.098 83.8302C124.415 83.7235 124.744 83.5872 125.073 83.4212Z" fill="#001F2C"/>
  <path d="M109.131 43.9824L124.777 75.1933C125.135 75.9106 124.057 77.1761 122.37 78.0237C120.681 78.8713 119.021 78.975 118.663 78.2578L103.017 47.0469L109.134 43.9824H109.131Z" fill="#B45AF2" stroke="#001E2B" stroke-miterlimit="10"/>
  <path d="M121.312 78.4633C120.035 78.8811 118.944 78.8278 118.66 78.2617L103.014 47.0508L105.053 46.0283L121.312 78.4633Z" fill="#001F2C"/>
  <path d="M106.499 38.7334L109.131 43.9821C109.49 44.6994 108.411 45.9649 106.725 46.8125C105.035 47.6601 103.376 47.7638 103.017 47.0466L100.385 41.7979L106.502 38.7334H106.499Z" fill="#B45AF2" stroke="#001E2B" stroke-miterlimit="10"/>
  <path d="M104.091 41.5768C105.78 40.7304 106.858 39.4631 106.498 38.7461C106.139 38.029 104.479 38.1339 102.79 38.9802C101.101 39.8266 100.024 41.094 100.383 41.811C100.742 42.528 102.403 42.4232 104.091 41.5768Z" fill="#7C25FF" stroke="#001E2B" stroke-miterlimit="10"/>
  <path d="M123.352 77.4404L107.706 46.2295" stroke="#231F20" stroke-miterlimit="10"/>
  <path d="M105.667 47.252L121.312 78.4629" stroke="#231F20" stroke-miterlimit="10"/>
  <path d="M17.8159 36.7481C25.8002 30.1568 36.028 26.1943 47.1656 26.1943" stroke="#001E2B" stroke-miterlimit="10"/>
  <path d="M1 72.3578C1 60.5237 5.47521 49.7179 12.8223 41.5381" stroke="#001E2B" stroke-miterlimit="10"/>
  <path d="M87.3036 72.3574C87.3036 50.1917 69.3346 32.2197 47.166 32.2197C24.9973 32.2197 7.02832 50.1888 7.02832 72.3574C7.02832 97.3504 27.2883 117.613 52.2843 117.613L47.166 112.495C69.3316 112.495 87.3036 94.526 87.3036 72.3574Z" fill="#5400F8" stroke="#001E2B" stroke-linejoin="round"/>
  <path d="M70.4842 57.2305H23.8501V60.5735H70.4842V57.2305Z" fill="#001F2C" stroke="#001E2B" stroke-miterlimit="10"/>
  <path d="M60.9944 77.1465H23.8501V80.4896H60.9944V77.1465Z" fill="#001F2C" stroke="#001E2B" stroke-miterlimit="10"/>
  <path d="M47.6339 87.1045H23.8501V90.4476H47.6339V87.1045Z" fill="#001F2C" stroke="#001E2B" stroke-miterlimit="10"/>
  <path d="M50.6895 67.1895H23.8501V70.5325H50.6895V67.1895Z" fill="#001F2C" stroke="#001E2B" stroke-miterlimit="10"/>
  <path d="M70.4842 56.2256H23.8501V59.5687H70.4842V56.2256Z" fill="white" stroke="#001E2B" stroke-miterlimit="10"/>
  <path d="M60.9944 76.1416H23.8501V79.4847H60.9944V76.1416Z" fill="white" stroke="#001E2B" stroke-miterlimit="10"/>
  <path d="M47.6339 86.1006H23.8501V89.4437H47.6339V86.1006Z" fill="white" stroke="#001E2B" stroke-miterlimit="10"/>
  <path d="M50.6895 66.1836H23.8501V69.5267H50.6895V66.1836Z" fill="white" stroke="#001E2B" stroke-miterlimit="10"/>
  <path d="M109.342 82.2227L104.449 75.0742L95.8096 75.7381L92.0664 83.5505L96.9595 90.6989L105.599 90.0351L109.342 82.2227Z" fill="white" stroke="#001E2B" stroke-width="0.75" stroke-miterlimit="10"/>
  <path d="M92.0664 83.5516L96.9595 90.7001L100.703 82.8877L95.8096 75.7393L92.0664 83.5516Z" fill="#001E2B" stroke="#001E2B" stroke-width="0.75" stroke-miterlimit="10"/>
  <path d="M109.342 82.2236L100.703 82.8875" stroke="#001E2B" stroke-width="0.75" stroke-miterlimit="10"/>
  <path d="M154.835 85.5487L150.345 88.1508L150.294 84.7692C150.274 83.2548 148.629 82.3242 147.319 83.0858L128.716 93.8738C127.305 94.6918 126.445 96.2092 126.469 97.8392L126.528 101.962L94.6802 120.429L95.3796 168.42L155.528 133.543L154.829 85.5517L154.835 85.5487Z" fill="#001F2C" stroke="#001E2B" stroke-miterlimit="10"/>
  <path d="M155.534 133.543L95.3857 168.42L102.267 122.277L162.419 87.4004L155.534 133.543Z" fill="white" stroke="#001E2B" stroke-width="0.75" stroke-miterlimit="10"/>
  <path d="M102.268 122.277L162.419 87.4004" stroke="#001E2B" stroke-width="0.75" stroke-miterlimit="10"/>
  <path d="M155.534 133.543L95.3857 168.42L109.413 125.017L169.562 90.1396L155.534 133.543Z" fill="white" stroke="#001E2B" stroke-width="0.75" stroke-miterlimit="10"/>
  <path d="M158.237 101.461L149.69 127.909" stroke="#001E2B" stroke-width="0.75" stroke-miterlimit="10"/>
  <path d="M150.504 106.082L141.954 132.533" stroke="#001E2B" stroke-width="0.75" stroke-miterlimit="10"/>
  <path d="M142.847 110.8L134.299 137.248" stroke="#001E2B" stroke-width="0.75" stroke-miterlimit="10"/>
  <path d="M135.191 115.515L126.641 141.966" stroke="#001E2B" stroke-width="0.75" stroke-miterlimit="10"/>
  <path d="M127.533 120.233L118.985 146.682" stroke="#001E2B" stroke-width="0.75" stroke-miterlimit="10"/>
  <path d="M119.877 124.949L111.327 151.4" stroke="#001E2B" stroke-width="0.75" stroke-miterlimit="10"/>
  <path d="M155.534 133.542L95.3857 168.419L115.18 129.346L175.332 94.4658L155.534 133.542Z" fill="#00ED64" stroke="#001E2B" stroke-miterlimit="10"/>
  <path d="M179.499 15.0068V50.9241" stroke="#001E2B" stroke-miterlimit="10"/>
  <path d="M90.3442 150.46L90.5606 163.865" stroke="#001E2B" stroke-miterlimit="10"/>
  <path d="M89.9146 124.023L90.2495 144.746" stroke="#001E2B" stroke-miterlimit="10"/>
</svg>
