
<svg width="24" height="24" viewBox="0 0 24 24" fill="none" xmlns="http://www.w3.org/2000/svg">
<rect x="0.5" y="0.5" width="23" height="23" rx="11.5" fill="#001E2B"/>
<path fill-rule="evenodd" clip-rule="evenodd" d="M16.6873 6.50098H7.31227C6.86336 6.50098 6.49951 6.85373 6.49951 7.28911V16.7126C6.49951 17.148 6.86349 17.5011 7.31227 17.5011H16.6873C17.1361 17.5011 17.4995 17.1478 17.4995 16.7126V7.28911C17.4995 6.85386 17.1361 6.50098 16.6873 6.50098ZM9.83438 15.7089H8.17236V10.7424H9.83438V15.7089ZM9.00367 10.0642H8.99249C8.43515 10.0642 8.07385 9.68299 8.07385 9.20579C8.07385 8.71898 8.44576 8.34814 9.01416 8.34814C9.58261 8.34814 9.93226 8.71888 9.94331 9.20579C9.94331 9.68309 9.58273 10.0642 9.00367 10.0642ZM15.8258 15.7086H14.1643V13.0514C14.1643 12.3837 13.9235 11.9281 13.3227 11.9281C12.863 11.9281 12.5902 12.2355 12.4704 12.5322C12.426 12.6382 12.415 12.7864 12.415 12.9345V15.7085H10.7538C10.7538 15.7085 10.7755 11.2079 10.7538 10.7421H12.4152V11.4462C12.6358 11.1079 13.0299 10.6252 13.9122 10.6252C15.0058 10.6252 15.8258 11.3347 15.8258 12.8608V15.7086H15.8258ZM12.4043 11.4913C12.4124 11.478 12.4238 11.4619 12.4351 11.4463V11.4913H12.4043Z" fill="white"/>
<mask id="mask0_877_96802" style="mask-type:alpha" maskUnits="userSpaceOnUse" x="6" y="6" width="12" height="12">
<path fill-rule="evenodd" clip-rule="evenodd" d="M16.6873 6.50098H7.31227C6.86336 6.50098 6.49951 6.85373 6.49951 7.28911V16.7126C6.49951 17.148 6.86349 17.5011 7.31227 17.5011H16.6873C17.1361 17.5011 17.4995 17.1478 17.4995 16.7126V7.28911C17.4995 6.85386 17.1361 6.50098 16.6873 6.50098ZM9.83438 15.7089H8.17236V10.7424H9.83438V15.7089ZM9.00367 10.0642H8.99249C8.43515 10.0642 8.07385 9.68299 8.07385 9.20579C8.07385 8.71898 8.44576 8.34814 9.01416 8.34814C9.58261 8.34814 9.93226 8.71888 9.94331 9.20579C9.94331 9.68309 9.58273 10.0642 9.00367 10.0642ZM15.8258 15.7086H14.1643V13.0514C14.1643 12.3837 13.9235 11.9281 13.3227 11.9281C12.863 11.9281 12.5902 12.2355 12.4704 12.5322C12.426 12.6382 12.415 12.7864 12.415 12.9345V15.7085H10.7538C10.7538 15.7085 10.7755 11.2079 10.7538 10.7421H12.4152V11.4462C12.6358 11.1079 13.0299 10.6252 13.9122 10.6252C15.0058 10.6252 15.8258 11.3347 15.8258 12.8608V15.7086H15.8258ZM12.4043 11.4913C12.4124 11.478 12.4238 11.4619 12.4351 11.4463V11.4913H12.4043Z" fill="white"/>
</mask>
<g mask="url(#mask0_877_96802)">
</g>
<rect x="0.5" y="0.5" width="23" height="23" rx="11.5" stroke="#001E2B"/>
</svg>