<svg width="24" height="24" viewBox="0 0 24 24" fill="none" xmlns="http://www.w3.org/2000/svg">
  <rect x="0.5" y="0.5" width="23" height="23" rx="11.5" fill="#001E2B"/>
  <path d="M11.331 9.20993C11.1846 9.35638 11.1846 9.59381 11.331 9.74026C11.4775 9.88671 11.7149 9.88671 11.8614 9.74026L11.331 9.20993ZM9.74004 11.8616C9.88649 11.7151 9.88649 11.4777 9.74004 11.3313C9.59359 11.1848 9.35616 11.1848 9.20971 11.3313L9.74004 11.8616ZM12.5685 14.69C12.7149 14.5436 12.7149 14.3061 12.5685 14.1597C12.422 14.0132 12.1846 14.0132 12.0381 14.1597L12.5685 14.69ZM14.1595 12.0384C14.013 12.1848 14.013 12.4222 14.1595 12.5687C14.3059 12.7151 14.5433 12.7151 14.6898 12.5687L14.1595 12.0384ZM10.2704 13.099C10.1239 13.2455 10.1239 13.4829 10.2704 13.6293C10.4168 13.7758 10.6543 13.7758 10.8007 13.6293L10.2704 13.099ZM13.6291 10.8009C13.7756 10.6545 13.7756 10.417 13.6291 10.2706C13.4827 10.1241 13.2452 10.1241 13.0988 10.2706L13.6291 10.8009ZM11.8614 9.74026L12.922 8.6796L12.3917 8.14927L11.331 9.20993L11.8614 9.74026ZM8.67938 12.9222L9.74004 11.8616L9.20971 11.3313L8.14905 12.3919L8.67938 12.9222ZM12.0381 14.1597L10.9775 15.2203L11.5078 15.7507L12.5685 14.69L12.0381 14.1597ZM15.2201 10.9777L14.1595 12.0384L14.6898 12.5687L15.7504 11.508L15.2201 10.9777ZM8.14905 15.7507C9.07654 16.6782 10.5803 16.6782 11.5078 15.7507L10.9775 15.2203C10.3429 15.8549 9.31398 15.8549 8.67938 15.2203L8.14905 15.7507ZM15.2201 8.6796C15.8547 9.3142 15.8547 10.3431 15.2201 10.9777L15.7504 11.508C16.6779 10.5805 16.6779 9.07676 15.7504 8.14927L15.2201 8.6796ZM15.7504 8.14927C14.823 7.22177 13.3192 7.22177 12.3917 8.14927L12.922 8.6796C13.5566 8.045 14.5855 8.045 15.2201 8.6796L15.7504 8.14927ZM8.67938 15.2203C8.04478 14.5857 8.04478 13.5568 8.67938 12.9222L8.14905 12.3919C7.22155 13.3194 7.22155 14.8232 8.14905 15.7507L8.67938 15.2203ZM10.8007 13.6293L13.6291 10.8009L13.0988 10.2706L10.2704 13.099L10.8007 13.6293Z" fill="white"/>
  <rect x="0.5" y="0.5" width="23" height="23" rx="11.5" stroke="#001E2B"/>
</svg>