<svg width="24" height="24" viewBox="0 0 24 24" fill="none" xmlns="http://www.w3.org/2000/svg">
<rect x="0.5" y="0.5" width="23" height="23" rx="11.5" fill="#001E2B"/>
<path fill-rule="evenodd" clip-rule="evenodd" d="M16.7665 9.3925C16.7716 9.4625 16.7741 9.5675 16.7741 9.7075C16.7741 10.3575 16.6777 11.0062 16.4848 11.6538C16.2919 12.3013 15.9987 12.9225 15.6053 13.5175C15.2119 14.1125 14.7437 14.6387 14.2005 15.0962C13.6574 15.5538 13.0025 15.9187 12.236 16.1912C11.4695 16.4637 10.6498 16.6 9.77665 16.6C8.40101 16.6 7.14214 16.2375 6 15.5125C6.17767 15.5325 6.37563 15.5425 6.59391 15.5425C7.73605 15.5425 8.7538 15.1975 9.64721 14.5075C9.11421 14.4975 8.63706 14.3363 8.21574 14.0237C7.79441 13.7112 7.50508 13.3125 7.34772 12.8275C7.51523 12.8525 7.67005 12.865 7.81218 12.865C8.03046 12.865 8.24619 12.8375 8.45939 12.7825C7.89086 12.6675 7.42005 12.3888 7.04695 11.9462C6.67386 11.5037 6.48731 10.99 6.48731 10.405V10.375C6.83249 10.565 7.20304 10.6675 7.59898 10.6825C7.26396 10.4625 6.99746 10.175 6.79949 9.82C6.60152 9.465 6.50254 9.08 6.50254 8.665C6.50254 8.225 6.61421 7.8175 6.83756 7.4425C7.45178 8.1875 8.19923 8.78375 9.07995 9.23125C9.96066 9.67875 10.9035 9.9275 11.9086 9.9775C11.868 9.7875 11.8477 9.6025 11.8477 9.4225C11.8477 8.7525 12.0876 8.18125 12.5673 7.70875C13.047 7.23625 13.6269 7 14.3071 7C15.0178 7 15.6167 7.255 16.1041 7.765C16.6574 7.66 17.1777 7.465 17.665 7.18C17.4772 7.755 17.1168 8.2 16.5838 8.515C17.0558 8.465 17.5279 8.34 18 8.14C17.6599 8.63 17.2487 9.0475 16.7665 9.3925Z" fill="white"/>
<mask id="mask0_877_96829" style="mask-type:alpha" maskUnits="userSpaceOnUse" x="6" y="7" width="12" height="10">
<path fill-rule="evenodd" clip-rule="evenodd" d="M16.7665 9.3925C16.7716 9.4625 16.7741 9.5675 16.7741 9.7075C16.7741 10.3575 16.6777 11.0062 16.4848 11.6538C16.2919 12.3013 15.9987 12.9225 15.6053 13.5175C15.2119 14.1125 14.7437 14.6387 14.2005 15.0962C13.6574 15.5538 13.0025 15.9187 12.236 16.1912C11.4695 16.4637 10.6498 16.6 9.77665 16.6C8.40101 16.6 7.14214 16.2375 6 15.5125C6.17767 15.5325 6.37563 15.5425 6.59391 15.5425C7.73605 15.5425 8.7538 15.1975 9.64721 14.5075C9.11421 14.4975 8.63706 14.3363 8.21574 14.0237C7.79441 13.7112 7.50508 13.3125 7.34772 12.8275C7.51523 12.8525 7.67005 12.865 7.81218 12.865C8.03046 12.865 8.24619 12.8375 8.45939 12.7825C7.89086 12.6675 7.42005 12.3888 7.04695 11.9462C6.67386 11.5037 6.48731 10.99 6.48731 10.405V10.375C6.83249 10.565 7.20304 10.6675 7.59898 10.6825C7.26396 10.4625 6.99746 10.175 6.79949 9.82C6.60152 9.465 6.50254 9.08 6.50254 8.665C6.50254 8.225 6.61421 7.8175 6.83756 7.4425C7.45178 8.1875 8.19923 8.78375 9.07995 9.23125C9.96066 9.67875 10.9035 9.9275 11.9086 9.9775C11.868 9.7875 11.8477 9.6025 11.8477 9.4225C11.8477 8.7525 12.0876 8.18125 12.5673 7.70875C13.047 7.23625 13.6269 7 14.3071 7C15.0178 7 15.6167 7.255 16.1041 7.765C16.6574 7.66 17.1777 7.465 17.665 7.18C17.4772 7.755 17.1168 8.2 16.5838 8.515C17.0558 8.465 17.5279 8.34 18 8.14C17.6599 8.63 17.2487 9.0475 16.7665 9.3925Z" fill="white"/>
</mask>
<g mask="url(#mask0_877_96829)">
</g>
<rect x="0.5" y="0.5" width="23" height="23" rx="11.5" stroke="#001E2B"/>
</svg>